<?xml version="1.0" encoding="UTF-8"?>
<svg id="Layer_2" data-name="Layer 2" xmlns="http://www.w3.org/2000/svg" viewBox="0 0 680.7 301.96">
  <defs>
    <style>
      .cls-1 {
        fill: #e4f7d3;
      }
    </style>
  </defs>
  <g id="Layer_1-2" data-name="Layer 1">
    <g>
      <rect class="cls-1" x="36.06" y="54.02" width="4.51" height="4.51"/>
      <rect class="cls-1" x="45.08" y="54.02" width="4.51" height="4.51"/>
      <rect class="cls-1" x="54.1" y="54.02" width="4.51" height="4.51"/>
      <rect class="cls-1" x="63.11" y="54.02" width="4.51" height="4.51"/>
      <rect class="cls-1" x="144.25" y="54.02" width="4.51" height="4.51"/>
      <rect class="cls-1" x="162.29" y="54.02" width="4.51" height="4.51"/>
      <rect class="cls-1" x="36.06" y="63.04" width="4.51" height="4.51"/>
      <rect class="cls-1" x="45.08" y="63.04" width="4.51" height="4.51"/>
      <rect class="cls-1" x="54.1" y="63.04" width="4.51" height="4.51"/>
      <rect class="cls-1" x="126.22" y="63.04" width="4.51" height="4.51"/>
      <rect class="cls-1" x="135.24" y="63.04" width="4.51" height="4.51"/>
      <rect class="cls-1" x="144.25" y="63.04" width="4.51" height="4.51"/>
      <rect class="cls-1" x="153.27" y="63.04" width="4.51" height="4.51"/>
      <rect class="cls-1" x="162.29" y="63.04" width="4.51" height="4.51"/>
      <rect class="cls-1" x="171.3" y="63.04" width="4.51" height="4.51"/>
      <rect class="cls-1" x="180.32" y="63.04" width="4.51" height="4.51"/>
      <rect class="cls-1" x="27.05" y="72.06" width="4.51" height="4.51"/>
      <rect class="cls-1" x="36.06" y="72.06" width="4.51" height="4.51"/>
      <rect class="cls-1" x="45.08" y="72.06" width="4.51" height="4.51"/>
      <rect class="cls-1" x="117.21" y="72.06" width="4.51" height="4.51"/>
      <rect class="cls-1" x="126.22" y="72.06" width="4.51" height="4.51"/>
      <rect class="cls-1" x="135.24" y="72.06" width="4.51" height="4.51"/>
      <rect class="cls-1" x="144.25" y="72.06" width="4.51" height="4.51"/>
      <rect class="cls-1" x="153.27" y="72.06" width="4.51" height="4.51"/>
      <rect class="cls-1" x="162.29" y="72.06" width="4.51" height="4.51"/>
      <rect class="cls-1" x="171.3" y="72.06" width="4.51" height="4.51"/>
      <rect class="cls-1" x="180.32" y="72.06" width="4.51" height="4.51"/>
      <rect class="cls-1" x="189.33" y="72.06" width="4.51" height="4.51"/>
      <rect class="cls-1" x="622.1" y="72.06" width="4.51" height="4.51"/>
      <rect class="cls-1" x="631.11" y="72.06" width="4.51" height="4.51"/>
      <rect class="cls-1" x="22.54" y="76.56" width="4.51" height="4.51"/>
      <rect class="cls-1" x="40.57" y="76.56" width="4.51" height="4.51"/>
      <rect class="cls-1" x="130.73" y="76.56" width="4.51" height="4.51"/>
      <rect class="cls-1" x="148.76" y="76.56" width="4.51" height="4.51"/>
      <rect class="cls-1" x="166.79" y="76.56" width="4.51" height="4.51"/>
      <rect class="cls-1" x="18.03" y="81.07" width="4.51" height="4.51"/>
      <rect class="cls-1" x="27.05" y="81.07" width="4.51" height="4.51"/>
      <rect class="cls-1" x="36.06" y="81.07" width="4.51" height="4.51"/>
      <rect class="cls-1" x="81.14" y="81.07" width="4.51" height="4.51"/>
      <rect class="cls-1" x="90.16" y="81.07" width="4.51" height="4.51"/>
      <rect class="cls-1" x="117.21" y="81.07" width="4.51" height="4.51"/>
      <rect class="cls-1" x="126.22" y="81.07" width="4.51" height="4.51"/>
      <rect class="cls-1" x="135.24" y="81.07" width="4.51" height="4.51"/>
      <rect class="cls-1" x="162.29" y="81.07" width="4.51" height="4.51"/>
      <rect class="cls-1" x="171.3" y="81.07" width="4.51" height="4.51"/>
      <rect class="cls-1" x="180.32" y="81.07" width="4.51" height="4.51"/>
      <rect class="cls-1" x="189.33" y="81.07" width="4.51" height="4.51"/>
      <rect class="cls-1" x="198.35" y="81.07" width="4.51" height="4.51"/>
      <rect class="cls-1" x="622.1" y="81.07" width="4.51" height="4.51"/>
      <rect class="cls-1" x="631.11" y="81.07" width="4.51" height="4.51"/>
      <rect class="cls-1" x="640.13" y="81.07" width="4.51" height="4.51"/>
      <rect class="cls-1" x="18.03" y="90.09" width="4.51" height="4.51"/>
      <rect class="cls-1" x="27.05" y="90.09" width="4.51" height="4.51"/>
      <rect class="cls-1" x="36.06" y="90.09" width="4.51" height="4.51"/>
      <rect class="cls-1" x="72.13" y="90.09" width="4.51" height="4.51"/>
      <rect class="cls-1" x="81.14" y="90.09" width="4.51" height="4.51"/>
      <rect class="cls-1" x="90.16" y="90.09" width="4.51" height="4.51"/>
      <rect class="cls-1" x="108.19" y="90.09" width="4.51" height="4.51"/>
      <rect class="cls-1" x="117.21" y="90.09" width="4.51" height="4.51"/>
      <rect class="cls-1" x="126.22" y="90.09" width="4.51" height="4.51"/>
      <rect class="cls-1" x="171.3" y="90.09" width="4.51" height="4.51"/>
      <rect class="cls-1" x="180.32" y="90.09" width="4.51" height="4.51"/>
      <rect class="cls-1" x="189.33" y="90.09" width="4.51" height="4.51"/>
      <rect class="cls-1" x="198.35" y="90.09" width="4.51" height="4.51"/>
      <rect class="cls-1" x="207.37" y="90.09" width="4.51" height="4.51"/>
      <rect class="cls-1" x="613.08" y="90.09" width="4.51" height="4.51"/>
      <rect class="cls-1" x="622.1" y="90.09" width="4.51" height="4.51"/>
      <rect class="cls-1" x="631.11" y="90.09" width="4.51" height="4.51"/>
      <rect class="cls-1" x="22.54" y="94.6" width="4.51" height="4.51"/>
      <rect class="cls-1" x="76.64" y="94.6" width="4.51" height="4.51"/>
      <rect class="cls-1" x="112.7" y="94.6" width="4.51" height="4.51"/>
      <rect class="cls-1" x="130.73" y="94.6" width="4.51" height="4.51"/>
      <rect class="cls-1" x="184.83" y="94.6" width="4.51" height="4.51"/>
      <rect class="cls-1" x="202.86" y="94.6" width="4.51" height="4.51"/>
      <rect class="cls-1" x="617.59" y="94.6" width="4.51" height="4.51"/>
      <rect class="cls-1" x="635.62" y="94.6" width="4.51" height="4.51"/>
      <rect class="cls-1" x="9.02" y="99.1" width="4.51" height="4.51"/>
      <rect class="cls-1" x="18.03" y="99.1" width="4.51" height="4.51"/>
      <rect class="cls-1" x="27.05" y="99.1" width="4.51" height="4.51"/>
      <rect class="cls-1" x="72.13" y="99.1" width="4.51" height="4.51"/>
      <rect class="cls-1" x="81.14" y="99.1" width="4.51" height="4.51"/>
      <rect class="cls-1" x="108.19" y="99.1" width="4.51" height="4.51"/>
      <rect class="cls-1" x="117.21" y="99.1" width="4.51" height="4.51"/>
      <rect class="cls-1" x="126.22" y="99.1" width="4.51" height="4.51"/>
      <rect class="cls-1" x="180.32" y="99.1" width="4.51" height="4.51"/>
      <rect class="cls-1" x="189.33" y="99.1" width="4.51" height="4.51"/>
      <rect class="cls-1" x="198.35" y="99.1" width="4.51" height="4.51"/>
      <rect class="cls-1" x="207.37" y="99.1" width="4.51" height="4.51"/>
      <rect class="cls-1" x="613.08" y="99.1" width="4.51" height="4.51"/>
      <rect class="cls-1" x="622.1" y="99.1" width="4.51" height="4.51"/>
      <rect class="cls-1" x="631.11" y="99.1" width="4.51" height="4.51"/>
      <rect class="cls-1" x="13.52" y="103.61" width="4.51" height="4.51"/>
      <rect class="cls-1" x="31.56" y="103.61" width="4.51" height="4.51"/>
      <rect class="cls-1" x="67.62" y="103.61" width="4.51" height="4.51"/>
      <rect class="cls-1" x="85.65" y="103.61" width="4.51" height="4.51"/>
      <rect class="cls-1" x="103.68" y="103.61" width="4.51" height="4.51"/>
      <rect class="cls-1" x="112.7" y="103.61" width="4.51" height="4.51"/>
      <rect class="cls-1" x="121.71" y="103.61" width="4.51" height="4.51"/>
      <rect class="cls-1" x="193.84" y="103.61" width="4.51" height="4.51"/>
      <rect class="cls-1" x="211.87" y="103.61" width="4.51" height="4.51"/>
      <rect class="cls-1" x="626.61" y="103.61" width="4.51" height="4.51"/>
      <rect class="cls-1" x="9.02" y="108.12" width="4.51" height="4.51"/>
      <rect class="cls-1" x="18.03" y="108.12" width="4.51" height="4.51"/>
      <rect class="cls-1" x="27.05" y="108.12" width="4.51" height="4.51"/>
      <rect class="cls-1" x="63.11" y="108.12" width="4.51" height="4.51"/>
      <rect class="cls-1" x="72.13" y="108.12" width="4.51" height="4.51"/>
      <rect class="cls-1" x="81.14" y="108.12" width="4.51" height="4.51"/>
      <rect class="cls-1" x="108.19" y="108.12" width="4.51" height="4.51"/>
      <rect class="cls-1" x="117.21" y="108.12" width="4.51" height="4.51"/>
      <rect class="cls-1" x="126.22" y="108.12" width="4.51" height="4.51"/>
      <rect class="cls-1" x="189.33" y="108.12" width="4.51" height="4.51"/>
      <rect class="cls-1" x="198.35" y="108.12" width="4.51" height="4.51"/>
      <rect class="cls-1" x="207.37" y="108.12" width="4.51" height="4.51"/>
      <rect class="cls-1" x="243.43" y="108.12" width="4.51" height="4.51"/>
      <rect class="cls-1" x="315.56" y="108.12" width="4.51" height="4.51"/>
      <rect class="cls-1" x="604.07" y="108.12" width="4.51" height="4.51"/>
      <rect class="cls-1" x="613.08" y="108.12" width="4.51" height="4.51"/>
      <rect class="cls-1" x="622.1" y="108.12" width="4.51" height="4.51"/>
      <rect class="cls-1" x="631.11" y="108.12" width="4.51" height="4.51"/>
      <rect class="cls-1" x="4.51" y="112.63" width="4.51" height="4.51"/>
      <rect class="cls-1" x="22.54" y="112.63" width="4.51" height="4.51"/>
      <rect class="cls-1" x="76.64" y="112.63" width="4.51" height="4.51"/>
      <rect class="cls-1" x="112.7" y="112.63" width="4.51" height="4.51"/>
      <rect class="cls-1" x="202.86" y="112.63" width="4.51" height="4.51"/>
      <rect class="cls-1" x="238.92" y="112.63" width="4.51" height="4.51"/>
      <rect class="cls-1" x="311.05" y="112.63" width="4.51" height="4.51"/>
      <rect class="cls-1" x="419.24" y="112.63" width="4.51" height="4.51"/>
      <rect class="cls-1" x="437.27" y="112.63" width="4.51" height="4.51"/>
      <rect class="cls-1" x="527.43" y="112.63" width="4.51" height="4.51"/>
      <rect class="cls-1" x="545.46" y="112.63" width="4.51" height="4.51"/>
      <rect class="cls-1" x="599.56" y="112.63" width="4.51" height="4.51"/>
      <rect class="cls-1" x="617.59" y="112.63" width="4.51" height="4.51"/>
      <rect class="cls-1" x="635.62" y="112.63" width="4.51" height="4.51"/>
      <rect class="cls-1" x="653.65" y="112.63" width="4.51" height="4.51"/>
      <rect class="cls-1" x="671.69" y="112.63" width="4.51" height="4.51"/>
      <rect class="cls-1" x="9.02" y="117.14" width="4.51" height="4.51"/>
      <rect class="cls-1" x="18.03" y="117.14" width="4.51" height="4.51"/>
      <rect class="cls-1" x="27.05" y="117.14" width="4.51" height="4.51"/>
      <rect class="cls-1" x="63.11" y="117.14" width="4.51" height="4.51"/>
      <rect class="cls-1" x="72.13" y="117.14" width="4.51" height="4.51"/>
      <rect class="cls-1" x="81.14" y="117.14" width="4.51" height="4.51"/>
      <rect class="cls-1" x="108.19" y="117.14" width="4.51" height="4.51"/>
      <rect class="cls-1" x="117.21" y="117.14" width="4.51" height="4.51"/>
      <rect class="cls-1" x="126.22" y="117.14" width="4.51" height="4.51"/>
      <rect class="cls-1" x="189.33" y="117.14" width="4.51" height="4.51"/>
      <rect class="cls-1" x="198.35" y="117.14" width="4.51" height="4.51"/>
      <rect class="cls-1" x="207.37" y="117.14" width="4.51" height="4.51"/>
      <rect class="cls-1" x="216.38" y="117.14" width="4.51" height="4.51"/>
      <rect class="cls-1" x="234.41" y="117.14" width="4.51" height="4.51"/>
      <rect class="cls-1" x="243.43" y="117.14" width="4.51" height="4.51"/>
      <rect class="cls-1" x="252.45" y="117.14" width="4.51" height="4.51"/>
      <rect class="cls-1" x="306.54" y="117.14" width="4.51" height="4.51"/>
      <rect class="cls-1" x="315.56" y="117.14" width="4.51" height="4.51"/>
      <rect class="cls-1" x="324.57" y="117.14" width="4.51" height="4.51"/>
      <rect class="cls-1" x="414.73" y="117.14" width="4.51" height="4.51"/>
      <rect class="cls-1" x="423.75" y="117.14" width="4.51" height="4.51"/>
      <rect class="cls-1" x="432.76" y="117.14" width="4.51" height="4.51"/>
      <rect class="cls-1" x="441.78" y="117.14" width="4.51" height="4.51"/>
      <rect class="cls-1" x="522.92" y="117.14" width="4.51" height="4.51"/>
      <rect class="cls-1" x="531.94" y="117.14" width="4.51" height="4.51"/>
      <rect class="cls-1" x="540.96" y="117.14" width="4.51" height="4.51"/>
      <rect class="cls-1" x="549.97" y="117.14" width="4.51" height="4.51"/>
      <rect class="cls-1" x="604.07" y="117.14" width="4.51" height="4.51"/>
      <rect class="cls-1" x="613.08" y="117.14" width="4.51" height="4.51"/>
      <rect class="cls-1" x="622.1" y="117.14" width="4.51" height="4.51"/>
      <rect class="cls-1" x="631.11" y="117.14" width="4.51" height="4.51"/>
      <rect class="cls-1" x="640.13" y="117.14" width="4.51" height="4.51"/>
      <rect class="cls-1" x="649.15" y="117.14" width="4.51" height="4.51"/>
      <rect class="cls-1" x="658.16" y="117.14" width="4.51" height="4.51"/>
      <rect class="cls-1" x="667.18" y="117.14" width="4.51" height="4.51"/>
      <rect class="cls-1" x="4.51" y="121.64" width="4.51" height="4.51"/>
      <rect class="cls-1" x="13.52" y="121.64" width="4.51" height="4.51"/>
      <rect class="cls-1" x="22.54" y="121.64" width="4.51" height="4.51"/>
      <rect class="cls-1" x="67.62" y="121.64" width="4.51" height="4.51"/>
      <rect class="cls-1" x="76.64" y="121.64" width="4.51" height="4.51"/>
      <rect class="cls-1" x="85.65" y="121.64" width="4.51" height="4.51"/>
      <rect class="cls-1" x="103.68" y="121.64" width="4.51" height="4.51"/>
      <rect class="cls-1" x="112.7" y="121.64" width="4.51" height="4.51"/>
      <rect class="cls-1" x="121.71" y="121.64" width="4.51" height="4.51"/>
      <rect class="cls-1" x="193.84" y="121.64" width="4.51" height="4.51"/>
      <rect class="cls-1" x="202.86" y="121.64" width="4.51" height="4.51"/>
      <rect class="cls-1" x="211.87" y="121.64" width="4.51" height="4.51"/>
      <rect class="cls-1" x="229.91" y="121.64" width="4.51" height="4.51"/>
      <rect class="cls-1" x="238.92" y="121.64" width="4.51" height="4.51"/>
      <rect class="cls-1" x="247.94" y="121.64" width="4.51" height="4.51"/>
      <rect class="cls-1" x="256.95" y="121.64" width="4.51" height="4.51"/>
      <rect class="cls-1" x="265.97" y="121.64" width="4.51" height="4.51"/>
      <rect class="cls-1" x="311.05" y="121.64" width="4.51" height="4.51"/>
      <rect class="cls-1" x="320.07" y="121.64" width="4.51" height="4.51"/>
      <rect class="cls-1" x="329.08" y="121.64" width="4.51" height="4.51"/>
      <rect class="cls-1" x="338.1" y="121.64" width="4.51" height="4.51"/>
      <rect class="cls-1" x="401.21" y="121.64" width="4.51" height="4.51"/>
      <rect class="cls-1" x="410.22" y="121.64" width="4.51" height="4.51"/>
      <rect class="cls-1" x="419.24" y="121.64" width="4.51" height="4.51"/>
      <rect class="cls-1" x="428.26" y="121.64" width="4.51" height="4.51"/>
      <rect class="cls-1" x="446.29" y="121.64" width="4.51" height="4.51"/>
      <rect class="cls-1" x="518.42" y="121.64" width="4.51" height="4.51"/>
      <rect class="cls-1" x="527.43" y="121.64" width="4.51" height="4.51"/>
      <rect class="cls-1" x="536.45" y="121.64" width="4.51" height="4.51"/>
      <rect class="cls-1" x="554.48" y="121.64" width="4.51" height="4.51"/>
      <rect class="cls-1" x="563.5" y="121.64" width="4.51" height="4.51"/>
      <rect class="cls-1" x="608.57" y="121.64" width="4.51" height="4.51"/>
      <rect class="cls-1" x="626.61" y="121.64" width="4.51" height="4.51"/>
      <rect class="cls-1" x="635.62" y="121.64" width="4.51" height="4.51"/>
      <rect class="cls-1" x="644.64" y="121.64" width="4.51" height="4.51"/>
      <rect class="cls-1" x="662.67" y="121.64" width="4.51" height="4.51"/>
      <rect class="cls-1" y="126.15" width="4.51" height="4.51"/>
      <rect class="cls-1" x="9.02" y="126.15" width="4.51" height="4.51"/>
      <rect class="cls-1" x="18.03" y="126.15" width="4.51" height="4.51"/>
      <rect class="cls-1" x="63.11" y="126.15" width="4.51" height="4.51"/>
      <rect class="cls-1" x="72.13" y="126.15" width="4.51" height="4.51"/>
      <rect class="cls-1" x="81.14" y="126.15" width="4.51" height="4.51"/>
      <rect class="cls-1" x="108.19" y="126.15" width="4.51" height="4.51"/>
      <rect class="cls-1" x="117.21" y="126.15" width="4.51" height="4.51"/>
      <rect class="cls-1" x="126.22" y="126.15" width="4.51" height="4.51"/>
      <rect class="cls-1" x="198.35" y="126.15" width="4.51" height="4.51"/>
      <rect class="cls-1" x="207.37" y="126.15" width="4.51" height="4.51"/>
      <rect class="cls-1" x="216.38" y="126.15" width="4.51" height="4.51"/>
      <rect class="cls-1" x="234.41" y="126.15" width="4.51" height="4.51"/>
      <rect class="cls-1" x="243.43" y="126.15" width="4.51" height="4.51"/>
      <rect class="cls-1" x="252.45" y="126.15" width="4.51" height="4.51"/>
      <rect class="cls-1" x="261.46" y="126.15" width="4.51" height="4.51"/>
      <rect class="cls-1" x="270.48" y="126.15" width="4.51" height="4.51"/>
      <rect class="cls-1" x="306.54" y="126.15" width="4.51" height="4.51"/>
      <rect class="cls-1" x="315.56" y="126.15" width="4.51" height="4.51"/>
      <rect class="cls-1" x="324.57" y="126.15" width="4.51" height="4.51"/>
      <rect class="cls-1" x="333.59" y="126.15" width="4.51" height="4.51"/>
      <rect class="cls-1" x="342.61" y="126.15" width="4.51" height="4.51"/>
      <rect class="cls-1" x="396.7" y="126.15" width="4.51" height="4.51"/>
      <rect class="cls-1" x="405.72" y="126.15" width="4.51" height="4.51"/>
      <rect class="cls-1" x="414.73" y="126.15" width="4.51" height="4.51"/>
      <rect class="cls-1" x="423.75" y="126.15" width="4.51" height="4.51"/>
      <rect class="cls-1" x="432.76" y="126.15" width="4.51" height="4.51"/>
      <rect class="cls-1" x="441.78" y="126.15" width="4.51" height="4.51"/>
      <rect class="cls-1" x="450.8" y="126.15" width="4.51" height="4.51"/>
      <rect class="cls-1" x="504.89" y="126.15" width="4.51" height="4.51"/>
      <rect class="cls-1" x="513.91" y="126.15" width="4.51" height="4.51"/>
      <rect class="cls-1" x="522.92" y="126.15" width="4.51" height="4.51"/>
      <rect class="cls-1" x="531.94" y="126.15" width="4.51" height="4.51"/>
      <rect class="cls-1" x="540.96" y="126.15" width="4.51" height="4.51"/>
      <rect class="cls-1" x="549.97" y="126.15" width="4.51" height="4.51"/>
      <rect class="cls-1" x="558.99" y="126.15" width="4.51" height="4.51"/>
      <rect class="cls-1" x="568" y="126.15" width="4.51" height="4.51"/>
      <rect class="cls-1" x="577.02" y="126.15" width="4.51" height="4.51"/>
      <rect class="cls-1" x="586.04" y="126.15" width="4.51" height="4.51"/>
      <rect class="cls-1" x="604.07" y="126.15" width="4.51" height="4.51"/>
      <rect class="cls-1" x="613.08" y="126.15" width="4.51" height="4.51"/>
      <rect class="cls-1" x="622.1" y="126.15" width="4.51" height="4.51"/>
      <rect class="cls-1" x="631.11" y="126.15" width="4.51" height="4.51"/>
      <rect class="cls-1" x="640.13" y="126.15" width="4.51" height="4.51"/>
      <rect class="cls-1" x="649.15" y="126.15" width="4.51" height="4.51"/>
      <rect class="cls-1" x="658.16" y="126.15" width="4.51" height="4.51"/>
      <rect class="cls-1" x="667.18" y="126.15" width="4.51" height="4.51"/>
      <rect class="cls-1" x="4.51" y="130.66" width="4.51" height="4.51"/>
      <rect class="cls-1" x="22.54" y="130.66" width="4.51" height="4.51"/>
      <rect class="cls-1" x="67.62" y="130.66" width="4.51" height="4.51"/>
      <rect class="cls-1" x="76.64" y="130.66" width="4.51" height="4.51"/>
      <rect class="cls-1" x="112.7" y="130.66" width="4.51" height="4.51"/>
      <rect class="cls-1" x="130.73" y="130.66" width="4.51" height="4.51"/>
      <rect class="cls-1" x="139.75" y="130.66" width="4.51" height="4.51"/>
      <rect class="cls-1" x="148.76" y="130.66" width="4.51" height="4.51"/>
      <rect class="cls-1" x="166.79" y="130.66" width="4.51" height="4.51"/>
      <rect class="cls-1" x="184.83" y="130.66" width="4.51" height="4.51"/>
      <rect class="cls-1" x="202.86" y="130.66" width="4.51" height="4.51"/>
      <rect class="cls-1" x="211.87" y="130.66" width="4.51" height="4.51"/>
      <rect class="cls-1" x="220.89" y="130.66" width="4.51" height="4.51"/>
      <rect class="cls-1" x="238.92" y="130.66" width="4.51" height="4.51"/>
      <rect class="cls-1" x="256.95" y="130.66" width="4.51" height="4.51"/>
      <rect class="cls-1" x="274.99" y="130.66" width="4.51" height="4.51"/>
      <rect class="cls-1" x="311.05" y="130.66" width="4.51" height="4.51"/>
      <rect class="cls-1" x="329.08" y="130.66" width="4.51" height="4.51"/>
      <rect class="cls-1" x="347.11" y="130.66" width="4.51" height="4.51"/>
      <rect class="cls-1" x="401.21" y="130.66" width="4.51" height="4.51"/>
      <rect class="cls-1" x="419.24" y="130.66" width="4.51" height="4.51"/>
      <rect class="cls-1" x="437.27" y="130.66" width="4.51" height="4.51"/>
      <rect class="cls-1" x="509.4" y="130.66" width="4.51" height="4.51"/>
      <rect class="cls-1" x="527.43" y="130.66" width="4.51" height="4.51"/>
      <rect class="cls-1" x="545.46" y="130.66" width="4.51" height="4.51"/>
      <rect class="cls-1" x="563.5" y="130.66" width="4.51" height="4.51"/>
      <rect class="cls-1" x="581.53" y="130.66" width="4.51" height="4.51"/>
      <rect class="cls-1" x="599.56" y="130.66" width="4.51" height="4.51"/>
      <rect class="cls-1" x="617.59" y="130.66" width="4.51" height="4.51"/>
      <rect class="cls-1" x="635.62" y="130.66" width="4.51" height="4.51"/>
      <rect class="cls-1" x="653.65" y="130.66" width="4.51" height="4.51"/>
      <rect class="cls-1" x="671.69" y="130.66" width="4.51" height="4.51"/>
      <rect class="cls-1" y="135.17" width="4.51" height="4.51"/>
      <rect class="cls-1" x="9.02" y="135.17" width="4.51" height="4.51"/>
      <rect class="cls-1" x="18.03" y="135.17" width="4.51" height="4.51"/>
      <rect class="cls-1" x="63.11" y="135.17" width="4.51" height="4.51"/>
      <rect class="cls-1" x="72.13" y="135.17" width="4.51" height="4.51"/>
      <rect class="cls-1" x="81.14" y="135.17" width="4.51" height="4.51"/>
      <rect class="cls-1" x="108.19" y="135.17" width="4.51" height="4.51"/>
      <rect class="cls-1" x="117.21" y="135.17" width="4.51" height="4.51"/>
      <rect class="cls-1" x="126.22" y="135.17" width="4.51" height="4.51"/>
      <rect class="cls-1" x="135.24" y="135.17" width="4.51" height="4.51"/>
      <rect class="cls-1" x="144.25" y="135.17" width="4.51" height="4.51"/>
      <rect class="cls-1" x="153.27" y="135.17" width="4.51" height="4.51"/>
      <rect class="cls-1" x="162.29" y="135.17" width="4.51" height="4.51"/>
      <rect class="cls-1" x="171.3" y="135.17" width="4.51" height="4.51"/>
      <rect class="cls-1" x="180.32" y="135.17" width="4.51" height="4.51"/>
      <rect class="cls-1" x="189.33" y="135.17" width="4.51" height="4.51"/>
      <rect class="cls-1" x="198.35" y="135.17" width="4.51" height="4.51"/>
      <rect class="cls-1" x="207.37" y="135.17" width="4.51" height="4.51"/>
      <rect class="cls-1" x="216.38" y="135.17" width="4.51" height="4.51"/>
      <rect class="cls-1" x="234.41" y="135.17" width="4.51" height="4.51"/>
      <rect class="cls-1" x="243.43" y="135.17" width="4.51" height="4.51"/>
      <rect class="cls-1" x="252.45" y="135.17" width="4.51" height="4.51"/>
      <rect class="cls-1" x="261.46" y="135.17" width="4.51" height="4.51"/>
      <rect class="cls-1" x="270.48" y="135.17" width="4.51" height="4.51"/>
      <rect class="cls-1" x="306.54" y="135.17" width="4.51" height="4.51"/>
      <rect class="cls-1" x="315.56" y="135.17" width="4.51" height="4.51"/>
      <rect class="cls-1" x="324.57" y="135.17" width="4.51" height="4.51"/>
      <rect class="cls-1" x="333.59" y="135.17" width="4.51" height="4.51"/>
      <rect class="cls-1" x="342.61" y="135.17" width="4.51" height="4.51"/>
      <rect class="cls-1" x="351.62" y="135.17" width="4.51" height="4.51"/>
      <rect class="cls-1" x="387.68" y="135.17" width="4.51" height="4.51"/>
      <rect class="cls-1" x="396.7" y="135.17" width="4.51" height="4.51"/>
      <rect class="cls-1" x="405.72" y="135.17" width="4.51" height="4.51"/>
      <rect class="cls-1" x="414.73" y="135.17" width="4.51" height="4.51"/>
      <rect class="cls-1" x="423.75" y="135.17" width="4.51" height="4.51"/>
      <rect class="cls-1" x="432.76" y="135.17" width="4.51" height="4.51"/>
      <rect class="cls-1" x="441.78" y="135.17" width="4.51" height="4.51"/>
      <rect class="cls-1" x="450.8" y="135.17" width="4.51" height="4.51"/>
      <rect class="cls-1" x="504.89" y="135.17" width="4.51" height="4.51"/>
      <rect class="cls-1" x="513.91" y="135.17" width="4.51" height="4.51"/>
      <rect class="cls-1" x="522.92" y="135.17" width="4.51" height="4.51"/>
      <rect class="cls-1" x="540.96" y="135.17" width="4.51" height="4.51"/>
      <rect class="cls-1" x="549.97" y="135.17" width="4.51" height="4.51"/>
      <rect class="cls-1" x="558.99" y="135.17" width="4.51" height="4.51"/>
      <rect class="cls-1" x="568" y="135.17" width="4.51" height="4.51"/>
      <rect class="cls-1" x="577.02" y="135.17" width="4.51" height="4.51"/>
      <rect class="cls-1" x="586.04" y="135.17" width="4.51" height="4.51"/>
      <rect class="cls-1" x="613.08" y="135.17" width="4.51" height="4.51"/>
      <rect class="cls-1" x="622.1" y="135.17" width="4.51" height="4.51"/>
      <rect class="cls-1" x="631.11" y="135.17" width="4.51" height="4.51"/>
      <rect class="cls-1" x="640.13" y="135.17" width="4.51" height="4.51"/>
      <rect class="cls-1" x="649.15" y="135.17" width="4.51" height="4.51"/>
      <rect class="cls-1" x="658.16" y="135.17" width="4.51" height="4.51"/>
      <rect class="cls-1" x="667.18" y="135.17" width="4.51" height="4.51"/>
      <rect class="cls-1" x="4.51" y="139.68" width="4.51" height="4.51"/>
      <rect class="cls-1" x="13.52" y="139.68" width="4.51" height="4.51"/>
      <rect class="cls-1" x="22.54" y="139.68" width="4.51" height="4.51"/>
      <rect class="cls-1" x="67.62" y="139.68" width="4.51" height="4.51"/>
      <rect class="cls-1" x="76.64" y="139.68" width="4.51" height="4.51"/>
      <rect class="cls-1" x="85.65" y="139.68" width="4.51" height="4.51"/>
      <rect class="cls-1" x="103.68" y="139.68" width="4.51" height="4.51"/>
      <rect class="cls-1" x="112.7" y="139.68" width="4.51" height="4.51"/>
      <rect class="cls-1" x="121.71" y="139.68" width="4.51" height="4.51"/>
      <rect class="cls-1" x="130.73" y="139.68" width="4.51" height="4.51"/>
      <rect class="cls-1" x="139.75" y="139.68" width="4.51" height="4.51"/>
      <rect class="cls-1" x="148.76" y="139.68" width="4.51" height="4.51"/>
      <rect class="cls-1" x="157.78" y="139.68" width="4.51" height="4.51"/>
      <rect class="cls-1" x="166.79" y="139.68" width="4.51" height="4.51"/>
      <rect class="cls-1" x="175.81" y="139.68" width="4.51" height="4.51"/>
      <rect class="cls-1" x="184.83" y="139.68" width="4.51" height="4.51"/>
      <rect class="cls-1" x="193.84" y="139.68" width="4.51" height="4.51"/>
      <rect class="cls-1" x="202.86" y="139.68" width="4.51" height="4.51"/>
      <rect class="cls-1" x="211.87" y="139.68" width="4.51" height="4.51"/>
      <rect class="cls-1" x="220.89" y="139.68" width="4.51" height="4.51"/>
      <rect class="cls-1" x="247.94" y="139.68" width="4.51" height="4.51"/>
      <rect class="cls-1" x="256.95" y="139.68" width="4.51" height="4.51"/>
      <rect class="cls-1" x="265.97" y="139.68" width="4.51" height="4.51"/>
      <rect class="cls-1" x="274.99" y="139.68" width="4.51" height="4.51"/>
      <rect class="cls-1" x="320.07" y="139.68" width="4.51" height="4.51"/>
      <rect class="cls-1" x="329.08" y="139.68" width="4.51" height="4.51"/>
      <rect class="cls-1" x="338.1" y="139.68" width="4.51" height="4.51"/>
      <rect class="cls-1" x="347.11" y="139.68" width="4.51" height="4.51"/>
      <rect class="cls-1" x="383.18" y="139.68" width="4.51" height="4.51"/>
      <rect class="cls-1" x="392.19" y="139.68" width="4.51" height="4.51"/>
      <rect class="cls-1" x="401.21" y="139.68" width="4.51" height="4.51"/>
      <rect class="cls-1" x="410.22" y="139.68" width="4.51" height="4.51"/>
      <rect class="cls-1" x="428.26" y="139.68" width="4.51" height="4.51"/>
      <rect class="cls-1" x="437.27" y="139.68" width="4.51" height="4.51"/>
      <rect class="cls-1" x="446.29" y="139.68" width="4.51" height="4.51"/>
      <rect class="cls-1" x="455.3" y="139.68" width="4.51" height="4.51"/>
      <rect class="cls-1" x="500.38" y="139.68" width="4.51" height="4.51"/>
      <rect class="cls-1" x="509.4" y="139.68" width="4.51" height="4.51"/>
      <rect class="cls-1" x="518.42" y="139.68" width="4.51" height="4.51"/>
      <rect class="cls-1" x="545.46" y="139.68" width="4.51" height="4.51"/>
      <rect class="cls-1" x="554.48" y="139.68" width="4.51" height="4.51"/>
      <rect class="cls-1" x="563.5" y="139.68" width="4.51" height="4.51"/>
      <rect class="cls-1" x="572.51" y="139.68" width="4.51" height="4.51"/>
      <rect class="cls-1" x="581.53" y="139.68" width="4.51" height="4.51"/>
      <rect class="cls-1" x="590.54" y="139.68" width="4.51" height="4.51"/>
      <rect class="cls-1" x="617.59" y="139.68" width="4.51" height="4.51"/>
      <rect class="cls-1" x="626.61" y="139.68" width="4.51" height="4.51"/>
      <rect class="cls-1" x="635.62" y="139.68" width="4.51" height="4.51"/>
      <rect class="cls-1" y="144.18" width="4.51" height="4.51"/>
      <rect class="cls-1" x="9.02" y="144.18" width="4.51" height="4.51"/>
      <polygon class="cls-1" points="18.03 148.69 13.52 148.69 13.52 153.2 18.03 153.2 18.03 157.71 22.54 157.71 22.54 153.2 27.05 153.2 27.05 148.69 22.54 148.69 22.54 144.18 18.03 144.18 18.03 148.69"/>
      <rect class="cls-1" x="72.13" y="144.18" width="4.51" height="4.51"/>
      <rect class="cls-1" x="81.14" y="144.18" width="4.51" height="4.51"/>
      <rect class="cls-1" x="108.19" y="144.18" width="4.51" height="4.51"/>
      <rect class="cls-1" x="117.21" y="144.18" width="4.51" height="4.51"/>
      <rect class="cls-1" x="126.22" y="144.18" width="4.51" height="4.51"/>
      <rect class="cls-1" x="135.24" y="144.18" width="4.51" height="4.51"/>
      <rect class="cls-1" x="144.25" y="144.18" width="4.51" height="4.51"/>
      <rect class="cls-1" x="153.27" y="144.18" width="4.51" height="4.51"/>
      <rect class="cls-1" x="162.29" y="144.18" width="4.51" height="4.51"/>
      <rect class="cls-1" x="171.3" y="144.18" width="4.51" height="4.51"/>
      <rect class="cls-1" x="180.32" y="144.18" width="4.51" height="4.51"/>
      <rect class="cls-1" x="189.33" y="144.18" width="4.51" height="4.51"/>
      <rect class="cls-1" x="198.35" y="144.18" width="4.51" height="4.51"/>
      <rect class="cls-1" x="207.37" y="144.18" width="4.51" height="4.51"/>
      <rect class="cls-1" x="216.38" y="144.18" width="4.51" height="4.51"/>
      <rect class="cls-1" x="252.45" y="144.18" width="4.51" height="4.51"/>
      <rect class="cls-1" x="261.46" y="144.18" width="4.51" height="4.51"/>
      <rect class="cls-1" x="270.48" y="144.18" width="4.51" height="4.51"/>
      <rect class="cls-1" x="324.57" y="144.18" width="4.51" height="4.51"/>
      <rect class="cls-1" x="333.59" y="144.18" width="4.51" height="4.51"/>
      <rect class="cls-1" x="342.61" y="144.18" width="4.51" height="4.51"/>
      <rect class="cls-1" x="387.68" y="144.18" width="4.51" height="4.51"/>
      <rect class="cls-1" x="396.7" y="144.18" width="4.51" height="4.51"/>
      <rect class="cls-1" x="405.72" y="144.18" width="4.51" height="4.51"/>
      <rect class="cls-1" x="432.76" y="144.18" width="4.51" height="4.51"/>
      <rect class="cls-1" x="441.78" y="144.18" width="4.51" height="4.51"/>
      <rect class="cls-1" x="450.8" y="144.18" width="4.51" height="4.51"/>
      <rect class="cls-1" x="459.81" y="144.18" width="4.51" height="4.51"/>
      <rect class="cls-1" x="504.89" y="144.18" width="4.51" height="4.51"/>
      <rect class="cls-1" x="513.91" y="144.18" width="4.51" height="4.51"/>
      <rect class="cls-1" x="568" y="144.18" width="4.51" height="4.51"/>
      <rect class="cls-1" x="577.02" y="144.18" width="4.51" height="4.51"/>
      <rect class="cls-1" x="586.04" y="144.18" width="4.51" height="4.51"/>
      <rect class="cls-1" x="613.08" y="144.18" width="4.51" height="4.51"/>
      <rect class="cls-1" x="622.1" y="144.18" width="4.51" height="4.51"/>
      <rect class="cls-1" x="631.11" y="144.18" width="4.51" height="4.51"/>
      <rect class="cls-1" x="4.51" y="148.69" width="4.51" height="4.51"/>
      <rect class="cls-1" x="67.62" y="148.69" width="4.51" height="4.51"/>
      <rect class="cls-1" x="76.64" y="148.69" width="4.51" height="4.51"/>
      <rect class="cls-1" x="85.65" y="148.69" width="4.51" height="4.51"/>
      <rect class="cls-1" x="103.68" y="148.69" width="4.51" height="4.51"/>
      <rect class="cls-1" x="112.7" y="148.69" width="4.51" height="4.51"/>
      <rect class="cls-1" x="121.71" y="148.69" width="4.51" height="4.51"/>
      <rect class="cls-1" x="130.73" y="148.69" width="4.51" height="4.51"/>
      <rect class="cls-1" x="139.75" y="148.69" width="4.51" height="4.51"/>
      <rect class="cls-1" x="148.76" y="148.69" width="4.51" height="4.51"/>
      <rect class="cls-1" x="157.78" y="148.69" width="4.51" height="4.51"/>
      <rect class="cls-1" x="166.79" y="148.69" width="4.51" height="4.51"/>
      <rect class="cls-1" x="175.81" y="148.69" width="4.51" height="4.51"/>
      <rect class="cls-1" x="184.83" y="148.69" width="4.51" height="4.51"/>
      <rect class="cls-1" x="193.84" y="148.69" width="4.51" height="4.51"/>
      <rect class="cls-1" x="202.86" y="148.69" width="4.51" height="4.51"/>
      <rect class="cls-1" x="211.87" y="148.69" width="4.51" height="4.51"/>
      <rect class="cls-1" x="220.89" y="148.69" width="4.51" height="4.51"/>
      <rect class="cls-1" x="256.95" y="148.69" width="4.51" height="4.51"/>
      <rect class="cls-1" x="265.97" y="148.69" width="4.51" height="4.51"/>
      <rect class="cls-1" x="274.99" y="148.69" width="4.51" height="4.51"/>
      <rect class="cls-1" x="329.08" y="148.69" width="4.51" height="4.51"/>
      <rect class="cls-1" x="338.1" y="148.69" width="4.51" height="4.51"/>
      <rect class="cls-1" x="347.11" y="148.69" width="4.51" height="4.51"/>
      <rect class="cls-1" x="383.18" y="148.69" width="4.51" height="4.51"/>
      <rect class="cls-1" x="392.19" y="148.69" width="4.51" height="4.51"/>
      <rect class="cls-1" x="401.21" y="148.69" width="4.51" height="4.51"/>
      <rect class="cls-1" x="437.27" y="148.69" width="4.51" height="4.51"/>
      <rect class="cls-1" x="446.29" y="148.69" width="4.51" height="4.51"/>
      <rect class="cls-1" x="455.3" y="148.69" width="4.51" height="4.51"/>
      <rect class="cls-1" x="500.38" y="148.69" width="4.51" height="4.51"/>
      <rect class="cls-1" x="509.4" y="148.69" width="4.51" height="4.51"/>
      <rect class="cls-1" x="518.42" y="148.69" width="4.51" height="4.51"/>
      <rect class="cls-1" x="563.5" y="148.69" width="4.51" height="4.51"/>
      <rect class="cls-1" x="572.51" y="148.69" width="4.51" height="4.51"/>
      <rect class="cls-1" x="581.53" y="148.69" width="4.51" height="4.51"/>
      <rect class="cls-1" x="617.59" y="148.69" width="4.51" height="4.51"/>
      <rect class="cls-1" x="626.61" y="148.69" width="4.51" height="4.51"/>
      <rect class="cls-1" x="635.62" y="148.69" width="4.51" height="4.51"/>
      <rect class="cls-1" y="153.2" width="4.51" height="4.51"/>
      <rect class="cls-1" x="9.02" y="153.2" width="4.51" height="4.51"/>
      <rect class="cls-1" x="72.13" y="153.2" width="4.51" height="4.51"/>
      <rect class="cls-1" x="81.14" y="153.2" width="4.51" height="4.51"/>
      <rect class="cls-1" x="108.19" y="153.2" width="4.51" height="4.51"/>
      <rect class="cls-1" x="117.21" y="153.2" width="4.51" height="4.51"/>
      <rect class="cls-1" x="126.22" y="153.2" width="4.51" height="4.51"/>
      <rect class="cls-1" x="198.35" y="153.2" width="4.51" height="4.51"/>
      <rect class="cls-1" x="207.37" y="153.2" width="4.51" height="4.51"/>
      <rect class="cls-1" x="216.38" y="153.2" width="4.51" height="4.51"/>
      <rect class="cls-1" x="252.45" y="153.2" width="4.51" height="4.51"/>
      <rect class="cls-1" x="261.46" y="153.2" width="4.51" height="4.51"/>
      <rect class="cls-1" x="270.48" y="153.2" width="4.51" height="4.51"/>
      <rect class="cls-1" x="324.57" y="153.2" width="4.51" height="4.51"/>
      <rect class="cls-1" x="333.59" y="153.2" width="4.51" height="4.51"/>
      <rect class="cls-1" x="342.61" y="153.2" width="4.51" height="4.51"/>
      <rect class="cls-1" x="378.67" y="153.2" width="4.51" height="4.51"/>
      <rect class="cls-1" x="387.68" y="153.2" width="4.51" height="4.51"/>
      <rect class="cls-1" x="396.7" y="153.2" width="4.51" height="4.51"/>
      <rect class="cls-1" x="441.78" y="153.2" width="4.51" height="4.51"/>
      <rect class="cls-1" x="450.8" y="153.2" width="4.51" height="4.51"/>
      <rect class="cls-1" x="459.81" y="153.2" width="4.51" height="4.51"/>
      <rect class="cls-1" x="468.83" y="153.2" width="4.51" height="4.51"/>
      <rect class="cls-1" x="495.88" y="153.2" width="4.51" height="4.51"/>
      <rect class="cls-1" x="504.89" y="153.2" width="4.51" height="4.51"/>
      <rect class="cls-1" x="513.91" y="153.2" width="4.51" height="4.51"/>
      <rect class="cls-1" x="568" y="153.2" width="4.51" height="4.51"/>
      <rect class="cls-1" x="577.02" y="153.2" width="4.51" height="4.51"/>
      <rect class="cls-1" x="586.04" y="153.2" width="4.51" height="4.51"/>
      <rect class="cls-1" x="613.08" y="153.2" width="4.51" height="4.51"/>
      <rect class="cls-1" x="622.1" y="153.2" width="4.51" height="4.51"/>
      <rect class="cls-1" x="631.11" y="153.2" width="4.51" height="4.51"/>
      <rect class="cls-1" x="4.51" y="157.71" width="4.51" height="4.51"/>
      <rect class="cls-1" x="13.52" y="157.71" width="4.51" height="4.51"/>
      <rect class="cls-1" x="22.54" y="157.71" width="4.51" height="4.51"/>
      <rect class="cls-1" x="67.62" y="157.71" width="4.51" height="4.51"/>
      <rect class="cls-1" x="76.64" y="157.71" width="4.51" height="4.51"/>
      <rect class="cls-1" x="85.65" y="157.71" width="4.51" height="4.51"/>
      <rect class="cls-1" x="103.68" y="157.71" width="4.51" height="4.51"/>
      <rect class="cls-1" x="112.7" y="157.71" width="4.51" height="4.51"/>
      <rect class="cls-1" x="121.71" y="157.71" width="4.51" height="4.51"/>
      <rect class="cls-1" x="202.86" y="157.71" width="4.51" height="4.51"/>
      <rect class="cls-1" x="211.87" y="157.71" width="4.51" height="4.51"/>
      <rect class="cls-1" x="220.89" y="157.71" width="4.51" height="4.51"/>
      <rect class="cls-1" x="256.95" y="157.71" width="4.51" height="4.51"/>
      <rect class="cls-1" x="265.97" y="157.71" width="4.51" height="4.51"/>
      <rect class="cls-1" x="329.08" y="157.71" width="4.51" height="4.51"/>
      <rect class="cls-1" x="338.1" y="157.71" width="4.51" height="4.51"/>
      <rect class="cls-1" x="383.18" y="157.71" width="4.51" height="4.51"/>
      <rect class="cls-1" x="392.19" y="157.71" width="4.51" height="4.51"/>
      <rect class="cls-1" x="401.21" y="157.71" width="4.51" height="4.51"/>
      <rect class="cls-1" x="446.29" y="157.71" width="4.51" height="4.51"/>
      <rect class="cls-1" x="455.3" y="157.71" width="4.51" height="4.51"/>
      <rect class="cls-1" x="464.32" y="157.71" width="4.51" height="4.51"/>
      <rect class="cls-1" x="500.38" y="157.71" width="4.51" height="4.51"/>
      <rect class="cls-1" x="509.4" y="157.71" width="4.51" height="4.51"/>
      <rect class="cls-1" x="563.5" y="157.71" width="4.51" height="4.51"/>
      <rect class="cls-1" x="572.51" y="157.71" width="4.51" height="4.51"/>
      <rect class="cls-1" x="581.53" y="157.71" width="4.51" height="4.51"/>
      <rect class="cls-1" x="617.59" y="157.71" width="4.51" height="4.51"/>
      <rect class="cls-1" x="626.61" y="157.71" width="4.51" height="4.51"/>
      <rect class="cls-1" x="635.62" y="157.71" width="4.51" height="4.51"/>
      <rect class="cls-1" x="9.02" y="162.22" width="4.51" height="4.51"/>
      <polygon class="cls-1" points="18.03 166.72 13.52 166.72 13.52 171.23 18.03 171.23 18.03 175.74 22.54 175.74 22.54 171.23 27.05 171.23 27.05 166.72 22.54 166.72 22.54 162.22 18.03 162.22 18.03 166.72"/>
      <rect class="cls-1" x="81.14" y="162.22" width="4.51" height="4.51"/>
      <rect class="cls-1" x="117.21" y="162.22" width="4.51" height="4.51"/>
      <polygon class="cls-1" points="202.86 162.22 198.35 162.22 198.35 166.72 198.35 171.23 198.35 175.74 202.86 175.74 202.86 171.23 207.37 171.23 207.37 166.72 202.86 166.72 202.86 162.22"/>
      <rect class="cls-1" x="207.37" y="162.22" width="4.51" height="4.51"/>
      <polygon class="cls-1" points="216.38 166.72 211.87 166.72 211.87 171.23 216.38 171.23 216.38 175.74 220.89 175.74 220.89 171.23 225.4 171.23 225.4 166.72 220.89 166.72 220.89 162.22 216.38 162.22 216.38 166.72"/>
      <rect class="cls-1" x="261.46" y="162.22" width="4.51" height="4.51"/>
      <rect class="cls-1" x="333.59" y="162.22" width="4.51" height="4.51"/>
      <rect class="cls-1" x="387.68" y="162.22" width="4.51" height="4.51"/>
      <rect class="cls-1" x="450.8" y="162.22" width="4.51" height="4.51"/>
      <rect class="cls-1" x="459.81" y="162.22" width="4.51" height="4.51"/>
      <rect class="cls-1" x="495.88" y="162.22" width="4.51" height="4.51"/>
      <rect class="cls-1" x="513.91" y="162.22" width="4.51" height="4.51"/>
      <rect class="cls-1" x="558.99" y="162.22" width="4.51" height="4.51"/>
      <rect class="cls-1" x="568" y="162.22" width="4.51" height="4.51"/>
      <polygon class="cls-1" points="577.02 166.72 572.51 166.72 572.51 171.23 577.02 171.23 581.53 171.23 581.53 166.72 581.53 162.22 577.02 162.22 577.02 166.72"/>
      <rect class="cls-1" x="622.1" y="162.22" width="4.51" height="4.51"/>
      <rect class="cls-1" x="631.11" y="162.22" width="4.51" height="4.51"/>
      <polygon class="cls-1" points="9.02 171.23 9.02 166.72 4.51 166.72 4.51 162.22 0 162.22 0 166.72 0 171.23 0 175.74 4.51 175.74 4.51 171.23 9.02 171.23"/>
      <rect class="cls-1" x="85.65" y="166.72" width="4.51" height="4.51"/>
      <polygon class="cls-1" points="117.21 171.23 117.21 166.72 112.7 166.72 112.7 162.22 108.19 162.22 108.19 166.72 108.19 171.23 108.19 175.74 112.7 175.74 112.7 171.23 117.21 171.23"/>
      <polygon class="cls-1" points="261.46 171.23 261.46 166.72 256.95 166.72 256.95 162.22 252.45 162.22 252.45 166.72 252.45 171.23 252.45 175.74 256.95 175.74 256.95 171.23 261.46 171.23"/>
      <polygon class="cls-1" points="265.97 166.72 265.97 171.23 270.48 171.23 270.48 175.74 274.99 175.74 274.99 171.23 274.99 166.72 274.99 162.22 270.48 162.22 270.48 166.72 265.97 166.72"/>
      <polygon class="cls-1" points="333.59 171.23 333.59 166.72 329.08 166.72 329.08 162.22 324.57 162.22 324.57 166.72 324.57 171.23 324.57 175.74 329.08 175.74 329.08 171.23 333.59 171.23"/>
      <polygon class="cls-1" points="338.1 166.72 338.1 171.23 342.61 171.23 342.61 175.74 347.11 175.74 347.11 171.23 347.11 166.72 347.11 162.22 342.61 162.22 342.61 166.72 338.1 166.72"/>
      <polygon class="cls-1" points="387.68 171.23 387.68 166.72 383.18 166.72 383.18 162.22 378.67 162.22 378.67 166.72 378.67 171.23 378.67 175.74 383.18 175.74 383.18 171.23 387.68 171.23"/>
      <rect class="cls-1" x="446.29" y="166.72" width="4.51" height="4.51"/>
      <rect class="cls-1" x="455.3" y="166.72" width="4.51" height="4.51"/>
      <polygon class="cls-1" points="464.32 166.72 464.32 171.23 468.83 171.23 468.83 175.74 473.34 175.74 473.34 171.23 473.34 166.72 473.34 162.22 468.83 162.22 468.83 166.72 464.32 166.72"/>
      <rect class="cls-1" x="518.42" y="166.72" width="4.51" height="4.51"/>
      <rect class="cls-1" x="554.48" y="166.72" width="4.51" height="4.51"/>
      <rect class="cls-1" x="563.5" y="166.72" width="4.51" height="4.51"/>
      <polygon class="cls-1" points="622.1 171.23 622.1 166.72 617.59 166.72 617.59 162.22 613.08 162.22 613.08 166.72 613.08 171.23 613.08 175.74 617.59 175.74 617.59 171.23 622.1 171.23"/>
      <rect class="cls-1" x="626.61" y="166.72" width="4.51" height="4.51"/>
      <rect class="cls-1" x="635.62" y="166.72" width="4.51" height="4.51"/>
      <polygon class="cls-1" points="76.64 171.23 81.14 171.23 81.14 166.72 76.64 166.72 76.64 162.22 72.13 162.22 72.13 166.72 67.62 166.72 67.62 171.23 72.13 171.23 72.13 175.74 76.64 175.74 76.64 171.23"/>
      <polygon class="cls-1" points="81.14 175.74 76.64 175.74 76.64 180.25 81.14 180.25 81.14 184.76 85.65 184.76 85.65 180.25 90.16 180.25 90.16 175.74 85.65 175.74 85.65 171.23 81.14 171.23 81.14 175.74"/>
      <polygon class="cls-1" points="130.73 171.23 130.73 166.72 130.73 162.22 126.22 162.22 126.22 166.72 121.71 166.72 121.71 171.23 126.22 171.23 126.22 175.74 130.73 175.74 130.73 171.23"/>
      <rect class="cls-1" x="135.24" y="171.23" width="4.51" height="4.51"/>
      <rect class="cls-1" x="144.25" y="171.23" width="4.51" height="4.51"/>
      <rect class="cls-1" x="162.29" y="171.23" width="4.51" height="4.51"/>
      <rect class="cls-1" x="171.3" y="171.23" width="4.51" height="4.51"/>
      <rect class="cls-1" x="180.32" y="171.23" width="4.51" height="4.51"/>
      <rect class="cls-1" x="207.37" y="171.23" width="4.51" height="4.51"/>
      <rect class="cls-1" x="387.68" y="171.23" width="4.51" height="4.51"/>
      <polygon class="cls-1" points="396.7 175.74 401.21 175.74 401.21 171.23 405.72 171.23 405.72 166.72 401.21 166.72 401.21 162.22 396.7 162.22 396.7 166.72 392.19 166.72 392.19 171.23 396.7 171.23 396.7 175.74"/>
      <polygon class="cls-1" points="446.29 171.23 441.78 171.23 441.78 175.74 437.27 175.74 437.27 180.25 441.78 180.25 441.78 184.76 446.29 184.76 446.29 180.25 450.8 180.25 450.8 175.74 446.29 175.74 446.29 171.23"/>
      <rect class="cls-1" x="450.8" y="171.23" width="4.51" height="4.51"/>
      <rect class="cls-1" x="459.81" y="171.23" width="4.51" height="4.51"/>
      <rect class="cls-1" x="495.88" y="171.23" width="4.51" height="4.51"/>
      <polygon class="cls-1" points="504.89 175.74 509.4 175.74 509.4 171.23 513.91 171.23 513.91 166.72 509.4 166.72 509.4 162.22 504.89 162.22 504.89 166.72 500.38 166.72 500.38 171.23 504.89 171.23 504.89 175.74"/>
      <rect class="cls-1" x="522.92" y="171.23" width="4.51" height="4.51"/>
      <rect class="cls-1" x="531.94" y="171.23" width="4.51" height="4.51"/>
      <rect class="cls-1" x="558.99" y="171.23" width="4.51" height="4.51"/>
      <rect class="cls-1" x="568" y="171.23" width="4.51" height="4.51"/>
      <rect class="cls-1" x="631.11" y="171.23" width="4.51" height="4.51"/>
      <rect class="cls-1" x="22.54" y="175.74" width="4.51" height="4.51"/>
      <rect class="cls-1" x="67.62" y="175.74" width="4.51" height="4.51"/>
      <rect class="cls-1" x="130.73" y="175.74" width="4.51" height="4.51"/>
      <rect class="cls-1" x="139.75" y="175.74" width="4.51" height="4.51"/>
      <polygon class="cls-1" points="157.78 175.74 157.78 171.23 153.27 171.23 153.27 175.74 148.76 175.74 148.76 180.25 153.27 180.25 153.27 184.76 157.78 184.76 157.78 180.25 162.29 180.25 162.29 175.74 157.78 175.74"/>
      <rect class="cls-1" x="166.79" y="175.74" width="4.51" height="4.51"/>
      <rect class="cls-1" x="175.81" y="175.74" width="4.51" height="4.51"/>
      <polygon class="cls-1" points="193.84 175.74 193.84 171.23 189.33 171.23 189.33 175.74 184.83 175.74 184.83 180.25 189.33 180.25 189.33 184.76 193.84 184.76 193.84 180.25 198.35 180.25 198.35 175.74 193.84 175.74"/>
      <rect class="cls-1" x="202.86" y="175.74" width="4.51" height="4.51"/>
      <rect class="cls-1" x="211.87" y="175.74" width="4.51" height="4.51"/>
      <rect class="cls-1" x="220.89" y="175.74" width="4.51" height="4.51"/>
      <rect class="cls-1" x="383.18" y="175.74" width="4.51" height="4.51"/>
      <rect class="cls-1" x="392.19" y="175.74" width="4.51" height="4.51"/>
      <rect class="cls-1" x="401.21" y="175.74" width="4.51" height="4.51"/>
      <rect class="cls-1" x="428.26" y="175.74" width="4.51" height="4.51"/>
      <rect class="cls-1" x="455.3" y="175.74" width="4.51" height="4.51"/>
      <rect class="cls-1" x="464.32" y="175.74" width="4.51" height="4.51"/>
      <rect class="cls-1" x="500.38" y="175.74" width="4.51" height="4.51"/>
      <polygon class="cls-1" points="522.92 180.25 522.92 175.74 518.42 175.74 518.42 171.23 513.91 171.23 513.91 175.74 509.4 175.74 509.4 180.25 513.91 180.25 513.91 184.76 518.42 184.76 518.42 180.25 522.92 180.25"/>
      <rect class="cls-1" x="527.43" y="175.74" width="4.51" height="4.51"/>
      <rect class="cls-1" x="536.45" y="175.74" width="4.51" height="4.51"/>
      <rect class="cls-1" x="563.5" y="175.74" width="4.51" height="4.51"/>
      <rect class="cls-1" x="572.51" y="175.74" width="4.51" height="4.51"/>
      <rect class="cls-1" x="635.62" y="175.74" width="4.51" height="4.51"/>
      <polygon class="cls-1" points="9.02 184.76 13.52 184.76 13.52 180.25 18.03 180.25 18.03 175.74 13.52 175.74 13.52 171.23 9.02 171.23 9.02 175.74 4.51 175.74 4.51 180.25 9.02 180.25 9.02 184.76"/>
      <polygon class="cls-1" points="117.21 184.76 121.71 184.76 121.71 180.25 126.22 180.25 126.22 175.74 121.71 175.74 121.71 171.23 117.21 171.23 117.21 175.74 112.7 175.74 112.7 180.25 117.21 180.25 117.21 184.76"/>
      <rect class="cls-1" x="135.24" y="180.25" width="4.51" height="4.51"/>
      <rect class="cls-1" x="171.3" y="180.25" width="4.51" height="4.51"/>
      <rect class="cls-1" x="207.37" y="180.25" width="4.51" height="4.51"/>
      <polygon class="cls-1" points="216.38 184.76 211.87 184.76 211.87 189.26 216.38 189.26 216.38 193.77 220.89 193.77 220.89 189.26 220.89 184.76 220.89 180.25 216.38 180.25 216.38 184.76"/>
      <polygon class="cls-1" points="261.46 184.76 265.97 184.76 265.97 180.25 270.48 180.25 270.48 175.74 265.97 175.74 265.97 171.23 261.46 171.23 261.46 175.74 256.95 175.74 256.95 180.25 261.46 180.25 261.46 184.76"/>
      <polygon class="cls-1" points="333.59 184.76 338.1 184.76 338.1 180.25 342.61 180.25 342.61 175.74 338.1 175.74 338.1 171.23 333.59 171.23 333.59 175.74 329.08 175.74 329.08 180.25 333.59 180.25 333.59 184.76"/>
      <rect class="cls-1" x="387.68" y="180.25" width="4.51" height="4.51"/>
      <rect class="cls-1" x="423.75" y="180.25" width="4.51" height="4.51"/>
      <polygon class="cls-1" points="437.27 180.25 432.76 180.25 432.76 184.76 428.26 184.76 428.26 189.26 432.76 189.26 432.76 193.77 437.27 193.77 437.27 189.26 441.78 189.26 441.78 184.76 437.27 184.76 437.27 180.25"/>
      <polygon class="cls-1" points="450.8 184.76 446.29 184.76 446.29 189.26 450.8 189.26 455.3 189.26 455.3 184.76 455.3 180.25 450.8 180.25 450.8 184.76"/>
      <rect class="cls-1" x="495.88" y="180.25" width="4.51" height="4.51"/>
      <rect class="cls-1" x="531.94" y="180.25" width="4.51" height="4.51"/>
      <polygon class="cls-1" points="549.97 184.76 554.48 184.76 554.48 180.25 558.99 180.25 558.99 175.74 554.48 175.74 554.48 171.23 549.97 171.23 549.97 175.74 545.46 175.74 545.46 180.25 549.97 180.25 549.97 184.76"/>
      <polygon class="cls-1" points="558.99 184.76 554.48 184.76 554.48 189.26 558.99 189.26 558.99 193.77 563.5 193.77 563.5 189.26 568 189.26 568 184.76 563.5 184.76 563.5 180.25 558.99 180.25 558.99 184.76"/>
      <rect class="cls-1" x="568" y="180.25" width="4.51" height="4.51"/>
      <rect class="cls-1" x="586.04" y="180.25" width="4.51" height="4.51"/>
      <polygon class="cls-1" points="622.1 184.76 626.61 184.76 626.61 180.25 631.11 180.25 631.11 175.74 626.61 175.74 626.61 171.23 622.1 171.23 622.1 175.74 617.59 175.74 617.59 180.25 622.1 180.25 622.1 184.76"/>
      <polygon class="cls-1" points="631.11 184.76 626.61 184.76 626.61 189.26 631.11 189.26 631.11 193.77 635.62 193.77 635.62 189.26 640.13 189.26 640.13 184.76 635.62 184.76 635.62 180.25 631.11 180.25 631.11 184.76"/>
      <polygon class="cls-1" points="9.02 189.26 9.02 184.76 4.51 184.76 4.51 180.25 0 180.25 0 184.76 0 189.26 0 193.77 4.51 193.77 4.51 189.26 9.02 189.26"/>
      <rect class="cls-1" x="85.65" y="184.76" width="4.51" height="4.51"/>
      <polygon class="cls-1" points="117.21 189.26 117.21 184.76 112.7 184.76 112.7 180.25 108.19 180.25 108.19 184.76 108.19 189.26 108.19 193.77 112.7 193.77 112.7 189.26 117.21 189.26"/>
      <path class="cls-1" d="M130.73,184.76v-4.51h-4.51v4.51h-4.51v4.51h4.51v4.51h-4.51v-4.51h-4.51v4.51h-4.51v4.51h4.51v4.51h4.51v-4.51h4.51v4.51h-4.51v4.51h4.51v4.51h-4.51v-4.51h-4.51v4.51h-4.51v-4.51h4.51v-4.51h-4.51v-4.51h-4.51v13.52h-4.51v4.51h4.51v4.51h-4.51v4.51h4.51v4.51h-4.51v4.51h4.51v4.51h4.51v-4.51h18.03v-45.08h4.51v-4.51h-4.51ZM112.7,216.31h4.51v4.51h-4.51v-4.51ZM112.7,229.84v-4.51h4.51v4.51h-4.51ZM126.22,229.84h-4.51v-4.51h4.51v4.51ZM126.22,220.82h-4.51v-4.51h4.51v4.51Z"/>
      <polygon class="cls-1" points="148.76 184.76 148.76 180.25 144.25 180.25 144.25 184.76 139.75 184.76 139.75 189.26 144.25 189.26 144.25 193.77 148.76 193.77 148.76 189.26 153.27 189.26 153.27 184.76 148.76 184.76"/>
      <polygon class="cls-1" points="166.79 184.76 166.79 180.25 162.29 180.25 162.29 184.76 157.78 184.76 157.78 189.26 162.29 189.26 162.29 193.77 166.79 193.77 166.79 189.26 171.3 189.26 171.3 184.76 166.79 184.76"/>
      <polygon class="cls-1" points="184.83 184.76 184.83 180.25 180.32 180.25 180.32 184.76 175.81 184.76 175.81 189.26 180.32 189.26 180.32 193.77 184.83 193.77 184.83 189.26 189.33 189.26 189.33 184.76 184.83 184.76"/>
      <polygon class="cls-1" points="261.46 189.26 261.46 184.76 256.95 184.76 256.95 180.25 252.45 180.25 252.45 184.76 252.45 189.26 252.45 193.77 256.95 193.77 256.95 189.26 261.46 189.26"/>
      <polygon class="cls-1" points="338.1 184.76 338.1 189.26 342.61 189.26 342.61 193.77 347.11 193.77 347.11 189.26 347.11 184.76 347.11 180.25 342.61 180.25 342.61 184.76 338.1 184.76"/>
      <polygon class="cls-1" points="387.68 189.26 387.68 184.76 383.18 184.76 383.18 180.25 378.67 180.25 378.67 184.76 378.67 189.26 378.67 193.77 383.18 193.77 383.18 189.26 387.68 189.26"/>
      <rect class="cls-1" x="419.24" y="184.76" width="4.51" height="4.51"/>
      <polygon class="cls-1" points="509.4 184.76 509.4 180.25 504.89 180.25 504.89 184.76 500.38 184.76 500.38 189.26 504.89 189.26 509.4 189.26 513.91 189.26 513.91 184.76 509.4 184.76"/>
      <polygon class="cls-1" points="549.97 189.26 549.97 184.76 545.46 184.76 545.46 180.25 540.96 180.25 540.96 184.76 536.45 184.76 536.45 189.26 540.96 189.26 540.96 193.77 545.46 193.77 545.46 189.26 549.97 189.26"/>
      <polygon class="cls-1" points="572.51 184.76 572.51 189.26 577.02 189.26 577.02 193.77 581.53 193.77 581.53 189.26 586.04 189.26 586.04 184.76 581.53 184.76 581.53 180.25 577.02 180.25 577.02 184.76 572.51 184.76"/>
      <rect class="cls-1" x="590.54" y="184.76" width="4.51" height="4.51"/>
      <polygon class="cls-1" points="622.1 189.26 622.1 184.76 617.59 184.76 617.59 180.25 613.08 180.25 613.08 184.76 613.08 189.26 613.08 193.77 617.59 193.77 617.59 189.26 622.1 189.26"/>
      <polygon class="cls-1" points="76.64 189.26 81.14 189.26 81.14 184.76 76.64 184.76 76.64 180.25 72.13 180.25 72.13 184.76 67.62 184.76 67.62 189.26 72.13 189.26 72.13 193.77 76.64 193.77 76.64 189.26"/>
      <polygon class="cls-1" points="81.14 193.77 76.64 193.77 76.64 198.28 81.14 198.28 81.14 202.79 85.65 202.79 85.65 198.28 90.16 198.28 90.16 193.77 85.65 193.77 85.65 189.26 81.14 189.26 81.14 193.77"/>
      <rect class="cls-1" x="135.24" y="189.26" width="4.51" height="4.51"/>
      <rect class="cls-1" x="153.27" y="189.26" width="4.51" height="4.51"/>
      <rect class="cls-1" x="171.3" y="189.26" width="4.51" height="4.51"/>
      <path class="cls-1" d="M211.87,189.26h-4.51v4.51h-4.51v-4.51h4.51v-4.51h-4.51v-4.51h-4.51v4.51h-4.51v4.51h4.51v4.51h-4.51v-4.51h-4.51v13.52h4.51v-4.51h4.51v4.51h-4.51v4.51h4.51v4.51h-4.51v-4.51h-4.51v4.51h-4.51v-4.51h-4.51v13.52h-4.51v4.51h4.51v4.51h-4.51v-4.51h-4.51v4.51h-13.52v4.51h4.51v4.51h-4.51v-4.51h-4.51v4.51h-18.03v4.51h-9.02v4.51h-4.51v-4.51h-13.52v4.51h-4.51v-4.51h-13.52v4.51h-4.51v-4.51h-4.51v-4.51h-4.51v-4.51h4.51v-4.51h-4.51v-4.51h4.51v4.51h4.51v-13.52h4.51v-4.51h-4.51v-4.51h-4.51v4.51h-4.51v-4.51h4.51v-4.51h-4.51v-4.51h-4.51v4.51h-4.51v4.51h4.51v4.51h-9.02v9.02h-4.51v4.51h4.51v4.51h-4.51v-4.51h-4.51v4.51h-4.51v-9.02h-9.02v-4.51h4.51v-4.51h-4.51v-4.51h-4.51v4.51h-4.51v-4.51h-4.51v4.51h-4.51v-4.51h4.51v-4.51h-4.51v-4.51h4.51v4.51h4.51v-13.52h-4.51v4.51h-4.51v-4.51h4.51v-4.51h-4.51v-4.51h-4.51v4.51h-4.51v4.51h4.51v4.51h-4.51v-4.51h-4.51v4.51h-4.51v4.51h4.51v4.51h4.51v-4.51h4.51v4.51h-4.51v4.51h4.51v4.51h-4.51v-4.51h-4.51v9.02h9.02v4.51h-4.51v4.51h4.51v4.51h4.51v-4.51h4.51v-4.51h-4.51v-4.51h4.51v4.51h4.51v-4.51h4.51v4.51h-4.51v4.51h4.51v4.51h-4.51v-4.51h-4.51v4.51h-4.51v4.51h4.51v4.51h4.51v-4.51h4.51v4.51h-4.51v4.51h4.51v4.51h4.51v4.51h9.02v4.51h4.51v4.51h18.03v4.51h13.52v-4.51h4.51v9.02h36.06v-4.51h-4.51v-4.51h4.51v4.51h9.02v4.51h18.03v4.51h4.51v4.51h9.02v4.51h9.02v-4.51h4.51v4.51h-4.51v4.51h4.51v4.51h9.02v4.51h4.51v4.51h4.51v-4.51h4.51v-4.51h4.51v-4.51h4.51v-9.02h4.51v-4.51h-4.51v-4.51h-4.51v4.51h-4.51v-4.51h4.51v-4.51h-13.52v-4.51h-4.51v-4.51h-13.52v-13.52h4.51v4.51h4.51v-4.51h4.51v-4.51h-4.51v-4.51h4.51v4.51h4.51v-4.51h4.51v-4.51h-4.51v-4.51h4.51v4.51h4.51v-4.51h4.51v-4.51h-4.51v-4.51h9.02v-9.02h-4.51v4.51h-4.51v-4.51h4.51v-4.51h-4.51v-4.51h4.51v4.51h4.51v-4.51h4.51v-4.51h-4.51v-4.51ZM184.83,216.31h4.51v4.51h-4.51v-4.51ZM166.79,234.34h4.51v4.51h-4.51v-4.51ZM162.29,243.36v4.51h-4.51v-4.51h4.51ZM189.33,270.41v4.51h-4.51v-4.51h4.51ZM198.35,283.93h-4.51v-4.51h4.51v4.51ZM157.78,265.9v-4.51h4.51v4.51h-4.51ZM130.73,252.38h4.51v4.51h-4.51v-4.51ZM139.75,252.38h4.51v4.51h-4.51v-4.51ZM153.27,252.38v4.51h-4.51v-4.51h4.51ZM144.25,243.36v4.51h-4.51v-4.51h4.51ZM117.21,256.88h-4.51v-4.51h4.51v4.51ZM108.19,252.38v4.51h-4.51v-4.51h4.51ZM94.67,256.88v-4.51h4.51v4.51h-4.51ZM81.14,256.88h-4.51v-4.51h4.51v4.51ZM67.62,243.36h4.51v4.51h-4.51v-4.51ZM72.13,238.85h-4.51v-4.51h4.51v4.51ZM81.14,216.31v4.51h-4.51v-4.51h4.51ZM67.62,216.31h4.51v4.51h-4.51v-4.51ZM67.62,225.33h4.51v4.51h-4.51v-4.51ZM63.11,234.34v4.51h-4.51v-4.51h4.51ZM54.1,234.34v4.51h-4.51v-4.51h4.51ZM40.57,225.33h4.51v4.51h-4.51v-4.51ZM40.57,234.34h4.51v4.51h-4.51v-4.51ZM49.59,243.36h4.51v4.51h-4.51v-4.51ZM58.6,256.88v-4.51h4.51v4.51h-4.51ZM67.62,256.88v-4.51h4.51v4.51h-4.51ZM103.68,265.9v-4.51h4.51v4.51h-4.51ZM139.75,265.9v-4.51h4.51v4.51h-4.51ZM166.79,270.41h4.51v4.51h-4.51v-4.51ZM180.32,261.39v4.51h-4.51v-4.51h4.51ZM171.3,256.88h-4.51v-4.51h4.51v4.51ZM180.32,238.85h-4.51v-4.51h4.51v4.51ZM189.33,229.84h-4.51v-4.51h4.51v4.51ZM198.35,220.82h-4.51v-4.51h4.51v4.51Z"/>
      <polygon class="cls-1" points="329.08 189.26 333.59 189.26 333.59 184.76 329.08 184.76 329.08 180.25 324.57 180.25 324.57 184.76 320.07 184.76 320.07 189.26 324.57 189.26 324.57 193.77 329.08 193.77 329.08 189.26"/>
      <polygon class="cls-1" points="401.21 189.26 405.72 189.26 405.72 184.76 401.21 184.76 401.21 180.25 396.7 180.25 396.7 184.76 392.19 184.76 392.19 189.26 396.7 189.26 396.7 193.77 401.21 193.77 401.21 189.26"/>
      <rect class="cls-1" x="414.73" y="189.26" width="4.51" height="4.51"/>
      <polygon class="cls-1" points="441.78 193.77 437.27 193.77 437.27 198.28 441.78 198.28 446.29 198.28 446.29 193.77 446.29 189.26 441.78 189.26 441.78 193.77"/>
      <polygon class="cls-1" points="527.43 189.26 531.94 189.26 531.94 184.76 527.43 184.76 527.43 180.25 522.92 180.25 522.92 184.76 518.42 184.76 518.42 189.26 522.92 189.26 522.92 193.77 527.43 193.77 527.43 189.26"/>
      <polygon class="cls-1" points="554.48 189.26 549.97 189.26 549.97 193.77 545.46 193.77 545.46 198.28 549.97 198.28 554.48 198.28 558.99 198.28 558.99 193.77 554.48 193.77 554.48 189.26"/>
      <polygon class="cls-1" points="568 193.77 563.5 193.77 563.5 198.28 568 198.28 568 202.79 572.51 202.79 572.51 198.28 577.02 198.28 577.02 193.77 572.51 193.77 572.51 189.26 568 189.26 568 193.77"/>
      <polygon class="cls-1" points="586.04 193.77 581.53 193.77 581.53 198.28 586.04 198.28 586.04 202.79 590.54 202.79 590.54 198.28 595.05 198.28 595.05 193.77 590.54 193.77 590.54 189.26 586.04 189.26 586.04 193.77"/>
      <rect class="cls-1" x="67.62" y="193.77" width="4.51" height="4.51"/>
      <rect class="cls-1" x="320.07" y="193.77" width="4.51" height="4.51"/>
      <polygon class="cls-1" points="338.1 193.77 338.1 189.26 333.59 189.26 333.59 193.77 329.08 193.77 329.08 198.28 333.59 198.28 333.59 202.79 338.1 202.79 338.1 198.28 342.61 198.28 342.61 193.77 338.1 193.77"/>
      <rect class="cls-1" x="347.11" y="193.77" width="4.51" height="4.51"/>
      <polygon class="cls-1" points="410.22 193.77 405.72 193.77 401.21 193.77 401.21 198.28 405.72 198.28 405.72 202.79 410.22 202.79 410.22 198.28 414.73 198.28 414.73 193.77 410.22 193.77"/>
      <polygon class="cls-1" points="432.76 198.28 432.76 193.77 428.26 193.77 428.26 189.26 423.75 189.26 423.75 193.77 419.24 193.77 419.24 198.28 423.75 198.28 423.75 202.79 428.26 202.79 428.26 198.28 432.76 198.28"/>
      <rect class="cls-1" x="635.62" y="193.77" width="4.51" height="4.51"/>
      <polygon class="cls-1" points="387.68 202.79 392.19 202.79 392.19 198.28 396.7 198.28 396.7 193.77 392.19 193.77 392.19 189.26 387.68 189.26 387.68 193.77 383.18 193.77 383.18 198.28 387.68 198.28 387.68 202.79"/>
      <rect class="cls-1" x="432.76" y="198.28" width="4.51" height="4.51"/>
      <polygon class="cls-1" points="513.91 202.79 518.42 202.79 518.42 198.28 522.92 198.28 522.92 193.77 518.42 193.77 518.42 189.26 513.91 189.26 513.91 193.77 509.4 193.77 509.4 198.28 513.91 198.28 513.91 202.79"/>
      <polygon class="cls-1" points="536.45 198.28 540.96 198.28 540.96 193.77 536.45 193.77 536.45 189.26 531.94 189.26 531.94 193.77 527.43 193.77 527.43 198.28 531.94 198.28 531.94 202.79 536.45 202.79 536.45 198.28"/>
      <polygon class="cls-1" points="622.1 202.79 626.61 202.79 626.61 198.28 631.11 198.28 631.11 193.77 626.61 193.77 626.61 189.26 622.1 189.26 622.1 193.77 617.59 193.77 617.59 198.28 622.1 198.28 622.1 202.79"/>
      <rect class="cls-1" x="4.51" y="202.79" width="4.51" height="4.51"/>
      <rect class="cls-1" x="31.56" y="202.79" width="4.51" height="4.51"/>
      <rect class="cls-1" x="85.65" y="202.79" width="4.51" height="4.51"/>
      <rect class="cls-1" x="184.83" y="202.79" width="4.51" height="4.51"/>
      <rect class="cls-1" x="211.87" y="202.79" width="4.51" height="4.51"/>
      <polygon class="cls-1" points="383.18 202.79 383.18 198.28 378.67 198.28 378.67 202.79 378.67 207.3 383.18 207.3 387.68 207.3 387.68 202.79 383.18 202.79"/>
      <rect class="cls-1" x="428.26" y="202.79" width="4.51" height="4.51"/>
      <rect class="cls-1" x="590.54" y="202.79" width="4.51" height="4.51"/>
      <path class="cls-1" d="M586.04,211.8h-4.51v-4.51h4.51v-4.51h-4.51v-4.51h-4.51v4.51h-4.51v4.51h4.51v4.51h-4.51v4.51h4.51v4.51h-4.51v4.51h4.51v4.51h-4.51v-4.51h-4.51v13.52h-13.52v-9.02h-9.02v-9.02h-9.02v4.51h4.51v4.51h-4.51v-4.51h-4.51v4.51h-4.51v-4.51h4.51v-4.51h-4.51v-13.52h4.51v-4.51h-4.51v-4.51h-4.51v4.51h-4.51v4.51h4.51v4.51h-4.51v-4.51h-4.51v4.51h-4.51v-4.51h4.51v-4.51h-4.51v-4.51h-4.51v4.51h-4.51v4.51h4.51v4.51h-9.02v9.02h4.51v-4.51h4.51v4.51h-4.51v4.51h4.51v4.51h-4.51v-4.51h-4.51v4.51h-4.51v-4.51h4.51v-4.51h-9.02v9.02h-4.51v4.51h4.51v4.51h-9.02v18.03h-4.51v4.51h13.52v4.51h9.02v-4.51h4.51v-18.03h4.51v-4.51h-4.51v-4.51h4.51v4.51h4.51v-4.51h4.51v4.51h4.51v-4.51h4.51v9.02h9.02v4.51h4.51v-4.51h4.51v4.51h-4.51v4.51h4.51v13.52h4.51v4.51h9.02v-9.02h4.51v4.51h9.02v-4.51h9.02v-4.51h-4.51v-4.51h4.51v4.51h4.51v-4.51h4.51v-4.51h4.51v-13.52h4.51v-4.51h-4.51v-4.51h4.51v-4.51h-4.51v-4.51h4.51v-4.51h-4.51v-4.51h-4.51v4.51ZM482.35,243.36h4.51v4.51h-4.51v-4.51ZM495.88,256.88h-4.51v-4.51h4.51v4.51ZM495.88,247.87h-4.51v-4.51h4.51v4.51ZM495.88,238.85h-4.51v-4.51h4.51v4.51ZM572.51,234.34h4.51v4.51h-4.51v-4.51ZM568,243.36v4.51h-4.51v-4.51h4.51ZM558.99,243.36v4.51h-4.51v-4.51h4.51ZM549.97,234.34v4.51h-4.51v-4.51h4.51ZM522.92,216.31v4.51h-4.51v-4.51h4.51ZM509.4,216.31h4.51v4.51h-4.51v-4.51ZM509.4,229.84v-4.51h4.51v4.51h-4.51ZM518.42,229.84v-4.51h4.51v4.51h-4.51ZM527.43,238.85v-4.51h4.51v4.51h-4.51ZM536.45,238.85v-4.51h4.51v4.51h-4.51ZM545.46,252.38h4.51v4.51h-4.51v-4.51ZM554.48,256.88v-4.51h4.51v4.51h-4.51ZM568,256.88h-4.51v-4.51h4.51v4.51ZM572.51,247.87v-4.51h4.51v4.51h-4.51ZM586.04,238.85h-4.51v-4.51h4.51v4.51ZM586.04,229.84h-4.51v-4.51h4.51v4.51ZM586.04,220.82h-4.51v-4.51h4.51v4.51Z"/>
      <rect class="cls-1" x="531.94" y="216.31" width="4.51" height="4.51"/>
      <rect class="cls-1" x="311.05" y="220.82" width="4.51" height="4.51"/>
      <rect class="cls-1" x="455.3" y="220.82" width="4.51" height="4.51"/>
      <rect class="cls-1" x="464.32" y="220.82" width="4.51" height="4.51"/>
      <path class="cls-1" d="M320.07,225.33h-4.51v4.51h-4.51v-4.51h-4.51v13.52h-22.54v-4.51h-4.51v4.51h-4.51v-58.6h-4.51v4.51h-4.51v4.51h4.51v4.51h-4.51v-4.51h-4.51v4.51h-4.51v4.51h4.51v4.51h4.51v-4.51h4.51v4.51h-4.51v4.51h4.51v4.51h-4.51v-4.51h-4.51v4.51h-4.51v-4.51h4.51v-4.51h-4.51v-4.51h-4.51v31.56h-4.51v4.51h4.51v4.51h-4.51v4.51h4.51v9.02h9.02v4.51h9.02v4.51h18.03v4.51h9.02v4.51h9.02v-4.51h-4.51v-4.51h4.51v4.51h4.51v-13.52h4.51v-4.51h-4.51v-4.51h4.51v4.51h4.51v-4.51h4.51v-4.51h-4.51v-4.51h4.51v-4.51h-4.51v-4.51ZM297.53,256.88h-4.51v-4.51h4.51v4.51ZM288.51,243.36v4.51h-4.51v-4.51h4.51ZM279.49,243.36v4.51h-4.51v-4.51h4.51ZM265.97,243.36h4.51v4.51h-4.51v-4.51ZM270.48,238.85h-4.51v-4.51h4.51v4.51ZM270.48,229.84h-4.51v-4.51h4.51v4.51ZM270.48,216.31v4.51h-4.51v-4.51h4.51ZM256.95,216.31h4.51v4.51h-4.51v-4.51ZM256.95,225.33h4.51v4.51h-4.51v-4.51ZM256.95,234.34h4.51v4.51h-4.51v-4.51ZM274.99,256.88v-4.51h4.51v4.51h-4.51ZM284,256.88v-4.51h4.51v4.51h-4.51ZM306.54,256.88h-4.51v-4.51h4.51v4.51ZM306.54,247.87h-4.51v-4.51h4.51v4.51ZM315.56,238.85h-4.51v-4.51h4.51v4.51Z"/>
      <path class="cls-1" d="M365.14,234.34h-4.51v4.51h-4.51v-4.51h4.51v-4.51h-4.51v-4.51h-4.51v4.51h-4.51v-4.51h4.51v-4.51h-4.51v-4.51h4.51v-4.51h-4.51v-4.51h4.51v-4.51h-4.51v-4.51h-4.51v4.51h-4.51v4.51h4.51v4.51h-4.51v-4.51h-4.51v4.51h-4.51v-4.51h4.51v-4.51h-4.51v-4.51h-4.51v4.51h-4.51v4.51h4.51v4.51h-4.51v-4.51h-4.51v13.52h4.51v-4.51h4.51v4.51h-4.51v4.51h4.51v4.51h4.51v-4.51h4.51v4.51h-4.51v4.51h4.51v13.52h4.51v-4.51h4.51v4.51h-4.51v9.02h4.51v9.02h4.51v4.51h4.51v-4.51h4.51v-4.51h9.02v-9.02h4.51v-13.52h-4.51v-4.51ZM360.64,243.36v4.51h-4.51v-4.51h4.51ZM351.62,234.34v4.51h-4.51v-4.51h4.51ZM342.61,216.31v4.51h-4.51v-4.51h4.51ZM329.08,220.82v-4.51h4.51v4.51h-4.51ZM338.1,225.33h4.51v4.51h-4.51v-4.51ZM338.1,238.85v-4.51h4.51v4.51h-4.51ZM347.11,243.36h4.51v4.51h-4.51v-4.51ZM347.11,252.38h4.51v4.51h-4.51v-4.51ZM360.64,256.88h-4.51v-4.51h4.51v4.51Z"/>
      <path class="cls-1" d="M473.34,238.85v-13.52h-4.51v4.51h-4.51v-4.51h-4.51v4.51h-4.51v-4.51h-4.51v4.51h-4.51v4.51h4.51v4.51h-4.51v-4.51h-4.51v4.51h-22.54v-4.51h-4.51v4.51h-4.51v-4.51h-4.51v4.51h-4.51v-4.51h4.51v-4.51h-4.51v-4.51h4.51v-4.51h-4.51v-4.51h4.51v4.51h4.51v-4.51h9.02v-9.02h4.51v-4.51h-4.51v-4.51h-4.51v4.51h-4.51v4.51h4.51v4.51h-4.51v-4.51h-4.51v4.51h-4.51v-4.51h4.51v-4.51h-4.51v-4.51h-4.51v4.51h-4.51v4.51h4.51v4.51h-4.51v-4.51h-4.51v4.51h-4.51v4.51h4.51v4.51h4.51v-4.51h4.51v4.51h-4.51v4.51h4.51v4.51h-4.51v-4.51h-4.51v4.51h-4.51v-4.51h4.51v-4.51h-9.02v27.05h4.51v-4.51h4.51v4.51h-4.51v4.51h13.52v4.51h4.51v-4.51h4.51v4.51h-4.51v4.51h13.52v4.51h13.52v-4.51h4.51v4.51h-4.51v4.51h9.02v-4.51h9.02v-4.51h4.51v-4.51h-4.51v-4.51h4.51v4.51h4.51v-4.51h9.02v-9.02h9.02v-4.51ZM455.3,234.34h4.51v4.51h-4.51v-4.51ZM432.76,243.36v4.51h-4.51v-4.51h4.51ZM423.75,243.36v4.51h-4.51v-4.51h4.51ZM423.75,256.88h-4.51v-4.51h4.51v4.51ZM414.73,243.36v4.51h-4.51v-4.51h4.51ZM396.7,234.34v4.51h-4.51v-4.51h4.51ZM383.18,238.85v-4.51h4.51v4.51h-4.51ZM392.19,247.87v-4.51h4.51v4.51h-4.51ZM428.26,256.88v-4.51h4.51v4.51h-4.51ZM441.78,256.88h-4.51v-4.51h4.51v4.51ZM446.29,247.87v-4.51h4.51v4.51h-4.51ZM459.81,247.87h-4.51v-4.51h4.51v4.51ZM464.32,238.85v-4.51h4.51v4.51h-4.51Z"/>
      <path class="cls-1" d="M676.19,238.85h-4.51v-9.02h-13.52v9.02h-22.54v-4.51h4.51v-4.51h-4.51v-4.51h4.51v-4.51h-4.51v-4.51h4.51v-4.51h-4.51v-4.51h4.51v-4.51h-4.51v-4.51h-4.51v4.51h-4.51v4.51h4.51v4.51h-4.51v-4.51h-4.51v4.51h-4.51v-4.51h4.51v-4.51h-4.51v-4.51h-4.51v40.57h-4.51v4.51h4.51v9.02h9.02v4.51h4.51v-4.51h4.51v4.51h-4.51v4.51h9.02v4.51h9.02v-4.51h4.51v4.51h-4.51v4.51h9.02v-4.51h4.51v-4.51h9.02v-4.51h-4.51v-4.51h4.51v4.51h4.51v-4.51h4.51v-4.51h-4.51v-4.51h4.51v4.51h4.51v-9.02h-4.51ZM662.67,234.34h4.51v4.51h-4.51v-4.51ZM649.15,243.36v4.51h-4.51v-4.51h4.51ZM640.13,243.36v4.51h-4.51v-4.51h4.51ZM631.11,238.85h-4.51v-4.51h4.51v4.51ZM631.11,229.84h-4.51v-4.51h4.51v4.51ZM631.11,216.31v4.51h-4.51v-4.51h4.51ZM617.59,216.31h4.51v4.51h-4.51v-4.51ZM617.59,225.33h4.51v4.51h-4.51v-4.51ZM617.59,234.34h4.51v4.51h-4.51v-4.51ZM626.61,247.87v-4.51h4.51v4.51h-4.51ZM635.62,252.38h4.51v4.51h-4.51v-4.51ZM644.64,256.88v-4.51h4.51v4.51h-4.51ZM658.16,256.88h-4.51v-4.51h4.51v4.51ZM667.18,247.87h-4.51v-4.51h4.51v4.51Z"/>
      <rect class="cls-1" x="343.17" width="4.51" height="4.51"/>
      <rect class="cls-1" x="361.2" width="4.51" height="4.51"/>
      <rect class="cls-1" x="379.23" width="4.51" height="4.51"/>
      <rect class="cls-1" x="275.55" y="4.51" width="4.51" height="4.51"/>
      <rect class="cls-1" x="293.58" y="4.51" width="4.51" height="4.51"/>
      <rect class="cls-1" x="311.62" y="4.51" width="4.51" height="4.51"/>
      <rect class="cls-1" x="329.65" y="4.51" width="4.51" height="4.51"/>
      <rect class="cls-1" x="347.68" y="4.51" width="4.51" height="4.51"/>
      <rect class="cls-1" x="383.74" y="4.51" width="4.51" height="4.51"/>
      <rect class="cls-1" x="262.03" y="9.02" width="4.51" height="4.51"/>
      <rect class="cls-1" x="271.04" y="9.02" width="4.51" height="4.51"/>
      <rect class="cls-1" x="280.06" y="9.02" width="4.51" height="4.51"/>
      <rect class="cls-1" x="289.08" y="9.02" width="4.51" height="4.51"/>
      <rect class="cls-1" x="298.09" y="9.02" width="4.51" height="4.51"/>
      <rect class="cls-1" x="307.11" y="9.02" width="4.51" height="4.51"/>
      <rect class="cls-1" x="316.12" y="9.02" width="4.51" height="4.51"/>
      <rect class="cls-1" x="325.14" y="9.02" width="4.51" height="4.51"/>
      <rect class="cls-1" x="334.16" y="9.02" width="4.51" height="4.51"/>
      <rect class="cls-1" x="343.17" y="9.02" width="4.51" height="4.51"/>
      <rect class="cls-1" x="352.19" y="9.02" width="4.51" height="4.51"/>
      <rect class="cls-1" x="361.2" y="9.02" width="4.51" height="4.51"/>
      <rect class="cls-1" x="370.22" y="9.02" width="4.51" height="4.51"/>
      <rect class="cls-1" x="379.23" y="9.02" width="4.51" height="4.51"/>
      <rect class="cls-1" x="257.52" y="13.52" width="4.51" height="4.51"/>
      <rect class="cls-1" x="266.54" y="13.52" width="4.51" height="4.51"/>
      <rect class="cls-1" x="275.55" y="13.52" width="4.51" height="4.51"/>
      <rect class="cls-1" x="284.57" y="13.52" width="4.51" height="4.51"/>
      <rect class="cls-1" x="293.58" y="13.52" width="4.51" height="4.51"/>
      <rect class="cls-1" x="302.6" y="13.52" width="4.51" height="4.51"/>
      <rect class="cls-1" x="311.62" y="13.52" width="4.51" height="4.51"/>
      <rect class="cls-1" x="320.63" y="13.52" width="4.51" height="4.51"/>
      <rect class="cls-1" x="329.65" y="13.52" width="4.51" height="4.51"/>
      <rect class="cls-1" x="338.66" y="13.52" width="4.51" height="4.51"/>
      <rect class="cls-1" x="356.69" y="13.52" width="4.51" height="4.51"/>
      <rect class="cls-1" x="365.71" y="13.52" width="4.51" height="4.51"/>
      <rect class="cls-1" x="374.73" y="13.52" width="4.51" height="4.51"/>
      <rect class="cls-1" x="253.01" y="18.03" width="4.51" height="4.51"/>
      <rect class="cls-1" x="262.03" y="18.03" width="4.51" height="4.51"/>
      <rect class="cls-1" x="298.09" y="18.03" width="4.51" height="4.51"/>
      <rect class="cls-1" x="316.12" y="18.03" width="4.51" height="4.51"/>
      <rect class="cls-1" x="361.2" y="18.03" width="4.51" height="4.51"/>
      <rect class="cls-1" x="370.22" y="18.03" width="4.51" height="4.51"/>
      <rect class="cls-1" x="257.52" y="22.54" width="4.51" height="4.51"/>
      <rect class="cls-1" x="266.54" y="22.54" width="4.51" height="4.51"/>
      <rect class="cls-1" x="275.55" y="22.54" width="4.51" height="4.51"/>
      <rect class="cls-1" x="284.57" y="22.54" width="4.51" height="4.51"/>
      <rect class="cls-1" x="293.58" y="22.54" width="4.51" height="4.51"/>
      <rect class="cls-1" x="302.6" y="22.54" width="4.51" height="4.51"/>
      <rect class="cls-1" x="311.62" y="22.54" width="4.51" height="4.51"/>
      <rect class="cls-1" x="320.63" y="22.54" width="4.51" height="4.51"/>
      <rect class="cls-1" x="356.69" y="22.54" width="4.51" height="4.51"/>
      <rect class="cls-1" x="365.71" y="22.54" width="4.51" height="4.51"/>
      <rect class="cls-1" x="253.01" y="27.05" width="4.51" height="4.51"/>
      <rect class="cls-1" x="262.03" y="27.05" width="4.51" height="4.51"/>
      <rect class="cls-1" x="280.06" y="27.05" width="4.51" height="4.51"/>
      <rect class="cls-1" x="298.09" y="27.05" width="4.51" height="4.51"/>
      <rect class="cls-1" x="316.12" y="27.05" width="4.51" height="4.51"/>
      <rect class="cls-1" x="361.2" y="27.05" width="4.51" height="4.51"/>
      <rect class="cls-1" x="379.23" y="27.05" width="4.51" height="4.51"/>
      <rect class="cls-1" x="424.31" y="27.05" width="4.51" height="4.51"/>
      <rect class="cls-1" x="433.33" y="27.05" width="4.51" height="4.51"/>
      <rect class="cls-1" x="275.55" y="31.56" width="4.51" height="4.51"/>
      <rect class="cls-1" x="293.58" y="31.56" width="4.51" height="4.51"/>
      <rect class="cls-1" x="302.6" y="31.56" width="4.51" height="4.51"/>
      <rect class="cls-1" x="311.62" y="31.56" width="4.51" height="4.51"/>
      <rect class="cls-1" x="356.69" y="31.56" width="4.51" height="4.51"/>
      <rect class="cls-1" x="365.71" y="31.56" width="4.51" height="4.51"/>
      <rect class="cls-1" x="374.73" y="31.56" width="4.51" height="4.51"/>
      <rect class="cls-1" x="383.74" y="31.56" width="4.51" height="4.51"/>
      <rect class="cls-1" x="392.76" y="31.56" width="4.51" height="4.51"/>
      <rect class="cls-1" x="419.81" y="31.56" width="4.51" height="4.51"/>
      <rect class="cls-1" x="428.82" y="31.56" width="4.51" height="4.51"/>
      <rect class="cls-1" x="437.84" y="31.56" width="4.51" height="4.51"/>
      <rect class="cls-1" x="280.06" y="36.06" width="4.51" height="4.51"/>
      <rect class="cls-1" x="298.09" y="36.06" width="4.51" height="4.51"/>
      <polygon class="cls-1" points="311.62 36.06 307.11 36.06 307.11 40.57 302.6 40.57 302.6 45.08 307.11 45.08 311.62 45.08 316.12 45.08 316.12 40.57 311.62 40.57 311.62 36.06"/>
      <rect class="cls-1" x="316.12" y="36.06" width="4.51" height="4.51"/>
      <rect class="cls-1" x="370.22" y="36.06" width="4.51" height="4.51"/>
      <rect class="cls-1" x="388.25" y="36.06" width="4.51" height="4.51"/>
      <rect class="cls-1" x="424.31" y="36.06" width="4.51" height="4.51"/>
      <polygon class="cls-1" points="437.84 36.06 433.33 36.06 433.33 40.57 428.82 40.57 428.82 45.08 433.33 45.08 433.33 49.59 437.84 49.59 437.84 45.08 442.35 45.08 442.35 40.57 437.84 40.57 437.84 36.06"/>
      <rect class="cls-1" x="442.35" y="36.06" width="4.51" height="4.51"/>
      <rect class="cls-1" x="293.58" y="40.57" width="4.51" height="4.51"/>
      <polygon class="cls-1" points="383.74 40.57 383.74 36.06 379.23 36.06 379.23 40.57 374.73 40.57 374.73 45.08 379.23 45.08 383.74 45.08 388.25 45.08 388.25 40.57 383.74 40.57"/>
      <polygon class="cls-1" points="392.76 40.57 392.76 45.08 397.27 45.08 397.27 49.59 401.77 49.59 401.77 45.08 406.28 45.08 406.28 40.57 401.77 40.57 401.77 36.06 397.27 36.06 397.27 40.57 392.76 40.57"/>
      <polygon class="cls-1" points="275.55 45.08 280.06 45.08 280.06 40.57 275.55 40.57 275.55 36.06 271.04 36.06 271.04 40.57 266.54 40.57 266.54 45.08 271.04 45.08 271.04 49.59 275.55 49.59 275.55 45.08"/>
      <polygon class="cls-1" points="365.71 45.08 370.22 45.08 370.22 40.57 365.71 40.57 365.71 36.06 361.2 36.06 361.2 40.57 356.69 40.57 356.69 45.08 361.2 45.08 361.2 49.59 365.71 49.59 365.71 45.08"/>
      <polygon class="cls-1" points="370.22 49.59 365.71 49.59 365.71 54.1 370.22 54.1 370.22 58.6 374.73 58.6 374.73 54.1 374.73 49.59 374.73 45.08 370.22 45.08 370.22 49.59"/>
      <polygon class="cls-1" points="415.3 49.59 419.81 49.59 419.81 45.08 424.31 45.08 424.31 40.57 419.81 40.57 419.81 36.06 415.3 36.06 415.3 40.57 410.79 40.57 410.79 45.08 415.3 45.08 415.3 49.59"/>
      <rect class="cls-1" x="266.54" y="49.59" width="4.51" height="4.51"/>
      <rect class="cls-1" x="275.55" y="49.59" width="4.51" height="4.51"/>
      <polygon class="cls-1" points="311.62 49.59 311.62 54.1 316.12 54.1 316.12 58.6 320.63 58.6 320.63 54.1 320.63 49.59 320.63 45.08 316.12 45.08 316.12 49.59 311.62 49.59"/>
      <rect class="cls-1" x="356.69" y="49.59" width="4.51" height="4.51"/>
      <polygon class="cls-1" points="397.27 54.1 397.27 49.59 392.76 49.59 392.76 45.08 388.25 45.08 388.25 49.59 388.25 54.1 388.25 58.6 392.76 58.6 392.76 54.1 397.27 54.1"/>
      <polygon class="cls-1" points="406.28 54.1 406.28 58.6 410.79 58.6 410.79 54.1 415.3 54.1 415.3 49.59 410.79 49.59 410.79 45.08 406.28 45.08 406.28 49.59 406.28 54.1"/>
      <polygon class="cls-1" points="437.84 49.59 437.84 54.1 442.35 54.1 442.35 58.6 446.85 58.6 446.85 54.1 451.36 54.1 451.36 49.59 446.85 49.59 446.85 45.08 442.35 45.08 442.35 49.59 437.84 49.59"/>
      <polygon class="cls-1" points="302.6 54.1 307.11 54.1 307.11 49.59 302.6 49.59 302.6 45.08 298.09 45.08 298.09 49.59 293.58 49.59 293.58 54.1 298.09 54.1 298.09 58.6 302.6 58.6 302.6 54.1"/>
      <polygon class="cls-1" points="365.71 54.1 361.2 54.1 361.2 58.6 356.69 58.6 356.69 63.11 361.2 63.11 361.2 67.62 356.69 67.62 356.69 72.13 361.2 72.13 361.2 76.64 356.69 76.64 356.69 81.14 361.2 81.14 361.2 85.65 356.69 85.65 356.69 90.16 361.2 90.16 361.2 94.67 365.71 94.67 365.71 90.16 370.22 90.16 370.22 94.67 370.22 99.18 374.73 99.18 374.73 94.67 374.73 90.16 379.23 90.16 383.74 90.16 383.74 85.65 379.23 85.65 374.73 85.65 374.73 81.14 370.22 81.14 370.22 76.64 365.71 76.64 365.71 72.13 370.22 72.13 370.22 67.62 365.71 67.62 365.71 63.11 370.22 63.11 370.22 58.6 365.71 58.6 365.71 54.1"/>
      <polygon class="cls-1" points="437.84 54.1 433.33 54.1 433.33 58.6 428.82 58.6 428.82 63.11 433.33 63.11 433.33 67.62 437.84 67.62 437.84 63.11 442.35 63.11 442.35 58.6 437.84 58.6 437.84 54.1"/>
      <rect class="cls-1" x="293.58" y="58.6" width="4.51" height="4.51"/>
      <rect class="cls-1" x="302.6" y="58.6" width="4.51" height="4.51"/>
      <rect class="cls-1" x="311.62" y="58.6" width="4.51" height="4.51"/>
      <path class="cls-1" d="M428.82,63.11h-4.51v4.51h-4.51v-13.52h-4.51v4.51h-4.51v4.51h4.51v4.51h-4.51v-4.51h-4.51v27.05h9.02v4.51h4.51v-4.51h4.51v4.51h4.51v-4.51h4.51v4.51h-4.51v4.51h9.02v-9.02h9.02v-9.02h4.51v-4.51h-4.51v-4.51h-4.51v4.51h-4.51v4.51h-4.51v4.51h-4.51v-4.51h-4.51v4.51h-4.51v-4.51h4.51v-4.51h-4.51v-4.51h4.51v4.51h4.51v-4.51h4.51v-4.51h-4.51v-4.51ZM415.3,85.65h-4.51v-4.51h4.51v4.51ZM415.3,76.64h-4.51v-4.51h4.51v4.51Z"/>
      <path class="cls-1" d="M311.62,67.62v4.51h4.51v4.51h-4.51v-4.51h-4.51v4.51h-4.51v-4.51h4.51v-4.51h-4.51v-4.51h-4.51v4.51h-4.51v4.51h4.51v4.51h-4.51v-4.51h-4.51v4.51h-4.51v-9.02h-9.02v-4.51h4.51v-4.51h-4.51v-4.51h-4.51v4.51h-4.51v4.51h4.51v4.51h-4.51v4.51h4.51v13.52h4.51v-4.51h4.51v4.51h-4.51v4.51h13.52v4.51h4.51v-4.51h4.51v4.51h-4.51v4.51h22.54v-4.51h-4.51v-4.51h4.51v4.51h4.51v-4.51h4.51v4.51h4.51v-4.51h9.02v-9.02h4.51v-4.51h-4.51v-4.51h-4.51v4.51h-4.51v4.51h-4.51v4.51h-4.51v-22.54h-4.51v4.51h-4.51ZM275.55,76.64v-4.51h4.51v4.51h-4.51ZM284.57,85.65v-4.51h4.51v4.51h-4.51ZM307.11,94.67h-4.51v-4.51h4.51v4.51ZM316.12,85.65h-13.52v-4.51h13.52v4.51Z"/>
      <path class="cls-1" d="M379.23,121.71h4.51v-4.51h9.02v-4.51h4.51v-9.02h-4.51v-4.51h4.51v4.51h4.51v-49.59h-4.51v4.51h-4.51v4.51h4.51v4.51h-4.51v-4.51h-4.51v36.06h-4.51v4.51h-4.51v4.51h-4.51v4.51h-4.51v4.51h9.02v4.51ZM392.76,72.13h4.51v4.51h-4.51v-4.51ZM392.76,81.14h4.51v4.51h-4.51v-4.51ZM392.76,90.16h4.51v4.51h-4.51v-4.51ZM388.25,108.19v4.51h-4.51v-4.51h4.51Z"/>
    </g>
  </g>
</svg>